<mxfile host="app.diagrams.net" agent="Mozilla/5.0 (Windows NT 10.0; Win64; x64) AppleWebKit/537.36 (KHTML, like Gecko) Chrome/136.0.0.0 Safari/537.36" version="27.1.4">
  <diagram name="Page-1" id="1rGNiOdrjXKtiIIh3JTA">
    <mxGraphModel dx="1654" dy="1486" grid="1" gridSize="10" guides="1" tooltips="1" connect="1" arrows="1" fold="1" page="1" pageScale="1" pageWidth="850" pageHeight="1100" math="0" shadow="0">
      <root>
        <mxCell id="0" />
        <mxCell id="1" parent="0" />
        <mxCell id="NyDk6Hg3P52oke4Y1pbq-1" value="tarefa" style="shape=table;startSize=30;container=1;collapsible=1;childLayout=tableLayout;fixedRows=1;rowLines=0;fontStyle=1;align=center;resizeLast=1;fillColor=#60a917;strokeColor=default;fontColor=default;swimlaneFillColor=none;" vertex="1" parent="1">
          <mxGeometry x="1850" y="750" width="770" height="330" as="geometry">
            <mxRectangle x="60" y="2370" width="70" height="30" as="alternateBounds" />
          </mxGeometry>
        </mxCell>
        <mxCell id="NyDk6Hg3P52oke4Y1pbq-2" value="" style="shape=tableRow;horizontal=0;startSize=0;swimlaneHead=0;swimlaneBody=0;fillColor=#60a917;collapsible=0;dropTarget=0;points=[[0,0.5],[1,0.5]];portConstraint=eastwest;strokeColor=inherit;top=0;left=0;right=0;bottom=1;swimlaneFillColor=none;fontColor=#ffffff;" vertex="1" parent="NyDk6Hg3P52oke4Y1pbq-1">
          <mxGeometry y="30" width="770" height="30" as="geometry" />
        </mxCell>
        <mxCell id="NyDk6Hg3P52oke4Y1pbq-3" value="PK" style="shape=partialRectangle;overflow=hidden;connectable=0;fillColor=light-dark(#60a917, #224103);strokeColor=inherit;top=1;left=0;bottom=1;right=1;fontStyle=1;swimlaneFillColor=none;fontColor=default;" vertex="1" parent="NyDk6Hg3P52oke4Y1pbq-2">
          <mxGeometry width="30" height="30" as="geometry">
            <mxRectangle width="30" height="30" as="alternateBounds" />
          </mxGeometry>
        </mxCell>
        <mxCell id="NyDk6Hg3P52oke4Y1pbq-4" value="id_tarefa          NUMBER GENERATED BY DEFAULT AS IDENTITY " style="shape=partialRectangle;overflow=hidden;connectable=0;fillColor=light-dark(#60a917, #224103);align=left;strokeColor=inherit;top=1;left=1;bottom=1;right=0;spacingLeft=6;fontStyle=5;fontColor=default;swimlaneFillColor=none;" vertex="1" parent="NyDk6Hg3P52oke4Y1pbq-2">
          <mxGeometry x="30" width="740" height="30" as="geometry">
            <mxRectangle width="740" height="30" as="alternateBounds" />
          </mxGeometry>
        </mxCell>
        <mxCell id="NyDk6Hg3P52oke4Y1pbq-5" value="" style="shape=tableRow;horizontal=0;startSize=0;swimlaneHead=0;swimlaneBody=0;fillColor=#60a917;collapsible=0;dropTarget=0;points=[[0,0.5],[1,0.5]];portConstraint=eastwest;strokeColor=inherit;top=0;left=0;right=0;bottom=0;swimlaneFillColor=none;fontColor=#ffffff;" vertex="1" parent="NyDk6Hg3P52oke4Y1pbq-1">
          <mxGeometry y="60" width="770" height="30" as="geometry" />
        </mxCell>
        <mxCell id="NyDk6Hg3P52oke4Y1pbq-6" value="FK" style="shape=partialRectangle;overflow=hidden;connectable=0;fillColor=light-dark(#60a917, #224103);strokeColor=inherit;top=0;left=0;bottom=1;right=1;fontStyle=1;swimlaneFillColor=none;fontColor=default;" vertex="1" parent="NyDk6Hg3P52oke4Y1pbq-5">
          <mxGeometry width="30" height="30" as="geometry">
            <mxRectangle width="30" height="30" as="alternateBounds" />
          </mxGeometry>
        </mxCell>
        <mxCell id="NyDk6Hg3P52oke4Y1pbq-7" value="id_usuario NUMBER NOT NULL REFERENCES usuario(id_usuario)" style="shape=partialRectangle;overflow=hidden;connectable=0;fillColor=light-dark(#60a917, #224103);align=left;strokeColor=inherit;top=0;left=1;bottom=1;right=0;spacingLeft=6;shadow=0;fontColor=default;strokeWidth=1;fontStyle=1;swimlaneFillColor=none;" vertex="1" parent="NyDk6Hg3P52oke4Y1pbq-5">
          <mxGeometry x="30" width="740" height="30" as="geometry">
            <mxRectangle width="740" height="30" as="alternateBounds" />
          </mxGeometry>
        </mxCell>
        <mxCell id="NyDk6Hg3P52oke4Y1pbq-8" value="" style="shape=tableRow;horizontal=0;startSize=0;swimlaneHead=0;swimlaneBody=0;fillColor=#60a917;collapsible=0;dropTarget=0;points=[[0,0.5],[1,0.5]];portConstraint=eastwest;strokeColor=inherit;top=0;left=0;right=0;bottom=0;swimlaneFillColor=none;fontColor=#ffffff;" vertex="1" parent="NyDk6Hg3P52oke4Y1pbq-1">
          <mxGeometry y="90" width="770" height="30" as="geometry" />
        </mxCell>
        <mxCell id="NyDk6Hg3P52oke4Y1pbq-9" value="FK" style="shape=partialRectangle;overflow=hidden;connectable=0;fillColor=light-dark(#60a917, #224103);strokeColor=inherit;top=0;left=0;bottom=1;right=1;fontStyle=1;swimlaneFillColor=none;fontColor=default;" vertex="1" parent="NyDk6Hg3P52oke4Y1pbq-8">
          <mxGeometry width="30" height="30" as="geometry">
            <mxRectangle width="30" height="30" as="alternateBounds" />
          </mxGeometry>
        </mxCell>
        <mxCell id="NyDk6Hg3P52oke4Y1pbq-10" value="id_alerta NUMBER NOT NULL REFERENCES alerta(id_alerta)" style="shape=partialRectangle;overflow=hidden;connectable=0;fillColor=light-dark(#60a917, #224103);align=left;strokeColor=inherit;top=0;left=1;bottom=1;right=0;spacingLeft=6;fillStyle=solid;fontStyle=1;swimlaneFillColor=none;fontColor=default;" vertex="1" parent="NyDk6Hg3P52oke4Y1pbq-8">
          <mxGeometry x="30" width="740" height="30" as="geometry">
            <mxRectangle width="740" height="30" as="alternateBounds" />
          </mxGeometry>
        </mxCell>
        <mxCell id="NyDk6Hg3P52oke4Y1pbq-11" value="" style="shape=tableRow;horizontal=0;startSize=0;swimlaneHead=0;swimlaneBody=0;fillColor=#60a917;collapsible=0;dropTarget=0;points=[[0,0.5],[1,0.5]];portConstraint=eastwest;strokeColor=inherit;top=0;left=0;right=0;bottom=0;swimlaneFillColor=none;fontColor=#ffffff;" vertex="1" parent="NyDk6Hg3P52oke4Y1pbq-1">
          <mxGeometry y="120" width="770" height="30" as="geometry" />
        </mxCell>
        <mxCell id="NyDk6Hg3P52oke4Y1pbq-12" value="" style="shape=partialRectangle;overflow=hidden;connectable=0;fillColor=light-dark(#60a917, #224103);strokeColor=inherit;top=0;left=0;bottom=0;right=1;swimlaneFillColor=none;fontColor=default;" vertex="1" parent="NyDk6Hg3P52oke4Y1pbq-11">
          <mxGeometry width="30" height="30" as="geometry">
            <mxRectangle width="30" height="30" as="alternateBounds" />
          </mxGeometry>
        </mxCell>
        <mxCell id="NyDk6Hg3P52oke4Y1pbq-13" value="titulo             VARCHAR2(100) NOT NULL" style="shape=partialRectangle;overflow=hidden;connectable=0;fillColor=light-dark(#60a917, #224103);align=left;strokeColor=inherit;top=0;left=1;bottom=0;right=0;spacingLeft=6;swimlaneFillColor=none;fontColor=default;" vertex="1" parent="NyDk6Hg3P52oke4Y1pbq-11">
          <mxGeometry x="30" width="740" height="30" as="geometry">
            <mxRectangle width="740" height="30" as="alternateBounds" />
          </mxGeometry>
        </mxCell>
        <mxCell id="NyDk6Hg3P52oke4Y1pbq-14" value="" style="shape=tableRow;horizontal=0;startSize=0;swimlaneHead=0;swimlaneBody=0;fillColor=#60a917;collapsible=0;dropTarget=0;points=[[0,0.5],[1,0.5]];portConstraint=eastwest;strokeColor=inherit;top=0;left=0;right=0;bottom=0;swimlaneFillColor=none;fontColor=#ffffff;" vertex="1" parent="NyDk6Hg3P52oke4Y1pbq-1">
          <mxGeometry y="150" width="770" height="30" as="geometry" />
        </mxCell>
        <mxCell id="NyDk6Hg3P52oke4Y1pbq-15" value="" style="shape=partialRectangle;overflow=hidden;connectable=0;fillColor=light-dark(#60a917, #224103);strokeColor=inherit;top=0;left=0;bottom=0;right=1;swimlaneFillColor=none;fontColor=default;" vertex="1" parent="NyDk6Hg3P52oke4Y1pbq-14">
          <mxGeometry width="30" height="30" as="geometry">
            <mxRectangle width="30" height="30" as="alternateBounds" />
          </mxGeometry>
        </mxCell>
        <mxCell id="NyDk6Hg3P52oke4Y1pbq-16" value="descricao          VARCHAR2(500)" style="shape=partialRectangle;overflow=hidden;connectable=0;fillColor=light-dark(#60a917, #224103);align=left;strokeColor=inherit;top=0;left=1;bottom=0;right=0;spacingLeft=6;swimlaneFillColor=none;fontColor=default;" vertex="1" parent="NyDk6Hg3P52oke4Y1pbq-14">
          <mxGeometry x="30" width="740" height="30" as="geometry">
            <mxRectangle width="740" height="30" as="alternateBounds" />
          </mxGeometry>
        </mxCell>
        <mxCell id="NyDk6Hg3P52oke4Y1pbq-17" value="" style="shape=tableRow;horizontal=0;startSize=0;swimlaneHead=0;swimlaneBody=0;fillColor=#60a917;collapsible=0;dropTarget=0;points=[[0,0.5],[1,0.5]];portConstraint=eastwest;strokeColor=inherit;top=0;left=0;right=0;bottom=0;swimlaneFillColor=none;fontColor=#ffffff;" vertex="1" parent="NyDk6Hg3P52oke4Y1pbq-1">
          <mxGeometry y="180" width="770" height="30" as="geometry" />
        </mxCell>
        <mxCell id="NyDk6Hg3P52oke4Y1pbq-18" value="" style="shape=partialRectangle;overflow=hidden;connectable=0;fillColor=light-dark(#60a917, #224103);strokeColor=inherit;top=0;left=0;bottom=0;right=1;swimlaneFillColor=none;fontColor=default;" vertex="1" parent="NyDk6Hg3P52oke4Y1pbq-17">
          <mxGeometry width="30" height="30" as="geometry">
            <mxRectangle width="30" height="30" as="alternateBounds" />
          </mxGeometry>
        </mxCell>
        <mxCell id="NyDk6Hg3P52oke4Y1pbq-19" value="status             VARCHAR2(20) DEFAULT &#39;PENDENTE&#39; CHECK (status IN (&#39;PENDENTE&#39;, &#39;EM_ANDAMENTO&#39;, &#39;CONCLUIDA&#39;, &#39;CANCELADA&#39;))" style="shape=partialRectangle;overflow=hidden;connectable=0;fillColor=light-dark(#60a917, #224103);align=left;strokeColor=inherit;top=0;left=1;bottom=0;right=0;spacingLeft=6;swimlaneFillColor=none;fontColor=default;" vertex="1" parent="NyDk6Hg3P52oke4Y1pbq-17">
          <mxGeometry x="30" width="740" height="30" as="geometry">
            <mxRectangle width="740" height="30" as="alternateBounds" />
          </mxGeometry>
        </mxCell>
        <mxCell id="NyDk6Hg3P52oke4Y1pbq-20" value="" style="shape=tableRow;horizontal=0;startSize=0;swimlaneHead=0;swimlaneBody=0;fillColor=#60a917;collapsible=0;dropTarget=0;points=[[0,0.5],[1,0.5]];portConstraint=eastwest;strokeColor=inherit;top=0;left=0;right=0;bottom=0;swimlaneFillColor=none;fontColor=#ffffff;" vertex="1" parent="NyDk6Hg3P52oke4Y1pbq-1">
          <mxGeometry y="210" width="770" height="30" as="geometry" />
        </mxCell>
        <mxCell id="NyDk6Hg3P52oke4Y1pbq-21" value="" style="shape=partialRectangle;overflow=hidden;connectable=0;fillColor=light-dark(#60a917, #224103);strokeColor=inherit;top=0;left=0;bottom=0;right=1;swimlaneFillColor=none;fontColor=default;" vertex="1" parent="NyDk6Hg3P52oke4Y1pbq-20">
          <mxGeometry width="30" height="30" as="geometry">
            <mxRectangle width="30" height="30" as="alternateBounds" />
          </mxGeometry>
        </mxCell>
        <mxCell id="NyDk6Hg3P52oke4Y1pbq-22" value="id_usuario         NUMBER NOT NULL" style="shape=partialRectangle;overflow=hidden;connectable=0;fillColor=light-dark(#60a917, #224103);align=left;strokeColor=inherit;top=0;left=1;bottom=0;right=0;spacingLeft=6;swimlaneFillColor=none;fontColor=default;" vertex="1" parent="NyDk6Hg3P52oke4Y1pbq-20">
          <mxGeometry x="30" width="740" height="30" as="geometry">
            <mxRectangle width="740" height="30" as="alternateBounds" />
          </mxGeometry>
        </mxCell>
        <mxCell id="NyDk6Hg3P52oke4Y1pbq-23" value="" style="shape=tableRow;horizontal=0;startSize=0;swimlaneHead=0;swimlaneBody=0;fillColor=#60a917;collapsible=0;dropTarget=0;points=[[0,0.5],[1,0.5]];portConstraint=eastwest;strokeColor=inherit;top=0;left=0;right=0;bottom=0;swimlaneFillColor=none;fontColor=#ffffff;" vertex="1" parent="NyDk6Hg3P52oke4Y1pbq-1">
          <mxGeometry y="240" width="770" height="30" as="geometry" />
        </mxCell>
        <mxCell id="NyDk6Hg3P52oke4Y1pbq-24" value="" style="shape=partialRectangle;overflow=hidden;connectable=0;fillColor=light-dark(#60a917, #224103);strokeColor=inherit;top=0;left=0;bottom=0;right=1;swimlaneFillColor=none;fontColor=default;" vertex="1" parent="NyDk6Hg3P52oke4Y1pbq-23">
          <mxGeometry width="30" height="30" as="geometry">
            <mxRectangle width="30" height="30" as="alternateBounds" />
          </mxGeometry>
        </mxCell>
        <mxCell id="NyDk6Hg3P52oke4Y1pbq-25" value="id_alerta          NUMBER" style="shape=partialRectangle;overflow=hidden;connectable=0;fillColor=light-dark(#60a917, #224103);align=left;strokeColor=inherit;top=0;left=1;bottom=0;right=0;spacingLeft=6;swimlaneFillColor=none;fontColor=default;" vertex="1" parent="NyDk6Hg3P52oke4Y1pbq-23">
          <mxGeometry x="30" width="740" height="30" as="geometry">
            <mxRectangle width="740" height="30" as="alternateBounds" />
          </mxGeometry>
        </mxCell>
        <mxCell id="NyDk6Hg3P52oke4Y1pbq-26" value="" style="shape=tableRow;horizontal=0;startSize=0;swimlaneHead=0;swimlaneBody=0;fillColor=#60a917;collapsible=0;dropTarget=0;points=[[0,0.5],[1,0.5]];portConstraint=eastwest;strokeColor=inherit;top=0;left=0;right=0;bottom=0;swimlaneFillColor=none;fontColor=#ffffff;" vertex="1" parent="NyDk6Hg3P52oke4Y1pbq-1">
          <mxGeometry y="270" width="770" height="30" as="geometry" />
        </mxCell>
        <mxCell id="NyDk6Hg3P52oke4Y1pbq-27" value="" style="shape=partialRectangle;overflow=hidden;connectable=0;fillColor=light-dark(#60a917, #224103);strokeColor=inherit;top=0;left=0;bottom=0;right=1;swimlaneFillColor=none;fontColor=default;" vertex="1" parent="NyDk6Hg3P52oke4Y1pbq-26">
          <mxGeometry width="30" height="30" as="geometry">
            <mxRectangle width="30" height="30" as="alternateBounds" />
          </mxGeometry>
        </mxCell>
        <mxCell id="NyDk6Hg3P52oke4Y1pbq-28" value="data_criacao       DATE DEFAULT SYSDATE" style="shape=partialRectangle;overflow=hidden;connectable=0;fillColor=light-dark(#60a917, #224103);align=left;strokeColor=inherit;top=0;left=1;bottom=0;right=0;spacingLeft=6;swimlaneFillColor=none;fontColor=default;" vertex="1" parent="NyDk6Hg3P52oke4Y1pbq-26">
          <mxGeometry x="30" width="740" height="30" as="geometry">
            <mxRectangle width="740" height="30" as="alternateBounds" />
          </mxGeometry>
        </mxCell>
        <mxCell id="NyDk6Hg3P52oke4Y1pbq-29" value="" style="shape=tableRow;horizontal=0;startSize=0;swimlaneHead=0;swimlaneBody=0;fillColor=#60a917;collapsible=0;dropTarget=0;points=[[0,0.5],[1,0.5]];portConstraint=eastwest;strokeColor=inherit;top=0;left=0;right=0;bottom=0;swimlaneFillColor=none;fontColor=#ffffff;" vertex="1" parent="NyDk6Hg3P52oke4Y1pbq-1">
          <mxGeometry y="300" width="770" height="30" as="geometry" />
        </mxCell>
        <mxCell id="NyDk6Hg3P52oke4Y1pbq-30" value="" style="shape=partialRectangle;overflow=hidden;connectable=0;fillColor=light-dark(#60a917, #224103);strokeColor=inherit;top=0;left=0;bottom=0;right=1;swimlaneFillColor=none;fontColor=default;" vertex="1" parent="NyDk6Hg3P52oke4Y1pbq-29">
          <mxGeometry width="30" height="30" as="geometry">
            <mxRectangle width="30" height="30" as="alternateBounds" />
          </mxGeometry>
        </mxCell>
        <mxCell id="NyDk6Hg3P52oke4Y1pbq-31" value="prazo              DATE" style="shape=partialRectangle;overflow=hidden;connectable=0;fillColor=light-dark(#60a917, #224103);align=left;strokeColor=inherit;top=0;left=1;bottom=0;right=0;spacingLeft=6;swimlaneFillColor=none;fontColor=default;" vertex="1" parent="NyDk6Hg3P52oke4Y1pbq-29">
          <mxGeometry x="30" width="740" height="30" as="geometry">
            <mxRectangle width="740" height="30" as="alternateBounds" />
          </mxGeometry>
        </mxCell>
        <mxCell id="NyDk6Hg3P52oke4Y1pbq-32" value="localizacao" style="shape=table;startSize=30;container=1;collapsible=1;childLayout=tableLayout;fixedRows=1;rowLines=0;fontStyle=1;align=center;resizeLast=1;fillColor=#60a917;strokeColor=default;fontColor=default;swimlaneFillColor=none;" vertex="1" parent="1">
          <mxGeometry x="1520" y="90" width="430.00000000000045" height="240" as="geometry" />
        </mxCell>
        <mxCell id="NyDk6Hg3P52oke4Y1pbq-33" value="" style="shape=tableRow;horizontal=0;startSize=0;swimlaneHead=0;swimlaneBody=0;fillColor=#60a917;collapsible=0;dropTarget=0;points=[[0,0.5],[1,0.5]];portConstraint=eastwest;strokeColor=inherit;top=0;left=0;right=0;bottom=1;swimlaneFillColor=none;fontColor=#ffffff;" vertex="1" parent="NyDk6Hg3P52oke4Y1pbq-32">
          <mxGeometry y="30" width="430.00000000000045" height="30" as="geometry" />
        </mxCell>
        <mxCell id="NyDk6Hg3P52oke4Y1pbq-34" value="PK" style="shape=partialRectangle;overflow=hidden;connectable=0;fillColor=light-dark(#60a917, #224103);strokeColor=inherit;top=1;left=0;bottom=1;right=1;fontStyle=1;swimlaneFillColor=none;fontColor=default;" vertex="1" parent="NyDk6Hg3P52oke4Y1pbq-33">
          <mxGeometry width="30" height="30" as="geometry">
            <mxRectangle width="30" height="30" as="alternateBounds" />
          </mxGeometry>
        </mxCell>
        <mxCell id="NyDk6Hg3P52oke4Y1pbq-35" value="id_localizacao       NUMBER GENERATED BY DEFAULT AS IDENTITY " style="shape=partialRectangle;overflow=hidden;connectable=0;fillColor=light-dark(#60a917, #224103);align=left;strokeColor=inherit;top=1;left=1;bottom=1;right=0;spacingLeft=6;fontStyle=5;swimlaneFillColor=none;fontColor=default;" vertex="1" parent="NyDk6Hg3P52oke4Y1pbq-33">
          <mxGeometry x="30" width="400.00000000000045" height="30" as="geometry">
            <mxRectangle width="400.00000000000045" height="30" as="alternateBounds" />
          </mxGeometry>
        </mxCell>
        <mxCell id="NyDk6Hg3P52oke4Y1pbq-36" value="" style="shape=tableRow;horizontal=0;startSize=0;swimlaneHead=0;swimlaneBody=0;fillColor=#60a917;collapsible=0;dropTarget=0;points=[[0,0.5],[1,0.5]];portConstraint=eastwest;strokeColor=inherit;top=0;left=0;right=0;bottom=0;swimlaneFillColor=none;fontColor=#ffffff;" vertex="1" parent="NyDk6Hg3P52oke4Y1pbq-32">
          <mxGeometry y="60" width="430.00000000000045" height="30" as="geometry" />
        </mxCell>
        <mxCell id="NyDk6Hg3P52oke4Y1pbq-37" value="" style="shape=partialRectangle;overflow=hidden;connectable=0;fillColor=light-dark(#60a917, #224103);strokeColor=inherit;top=0;left=0;bottom=0;right=1;swimlaneFillColor=none;fontColor=default;" vertex="1" parent="NyDk6Hg3P52oke4Y1pbq-36">
          <mxGeometry width="30" height="30" as="geometry">
            <mxRectangle width="30" height="30" as="alternateBounds" />
          </mxGeometry>
        </mxCell>
        <mxCell id="NyDk6Hg3P52oke4Y1pbq-38" value="nome                 VARCHAR2(100)" style="shape=partialRectangle;overflow=hidden;connectable=0;fillColor=light-dark(#60a917, #224103);align=left;strokeColor=inherit;top=0;left=1;bottom=0;right=0;spacingLeft=6;swimlaneFillColor=none;fontColor=default;" vertex="1" parent="NyDk6Hg3P52oke4Y1pbq-36">
          <mxGeometry x="30" width="400.00000000000045" height="30" as="geometry">
            <mxRectangle width="400.00000000000045" height="30" as="alternateBounds" />
          </mxGeometry>
        </mxCell>
        <mxCell id="NyDk6Hg3P52oke4Y1pbq-39" value="" style="shape=tableRow;horizontal=0;startSize=0;swimlaneHead=0;swimlaneBody=0;fillColor=#60a917;collapsible=0;dropTarget=0;points=[[0,0.5],[1,0.5]];portConstraint=eastwest;strokeColor=inherit;top=0;left=0;right=0;bottom=0;swimlaneFillColor=none;fontColor=#ffffff;" vertex="1" parent="NyDk6Hg3P52oke4Y1pbq-32">
          <mxGeometry y="90" width="430.00000000000045" height="30" as="geometry" />
        </mxCell>
        <mxCell id="NyDk6Hg3P52oke4Y1pbq-40" value="" style="shape=partialRectangle;overflow=hidden;connectable=0;fillColor=light-dark(#60a917, #224103);strokeColor=inherit;top=0;left=0;bottom=0;right=1;swimlaneFillColor=none;fontColor=default;" vertex="1" parent="NyDk6Hg3P52oke4Y1pbq-39">
          <mxGeometry width="30" height="30" as="geometry">
            <mxRectangle width="30" height="30" as="alternateBounds" />
          </mxGeometry>
        </mxCell>
        <mxCell id="NyDk6Hg3P52oke4Y1pbq-41" value="latitude             NUMBER(10, 6)" style="shape=partialRectangle;overflow=hidden;connectable=0;fillColor=light-dark(#60a917, #224103);align=left;strokeColor=inherit;top=0;left=1;bottom=0;right=0;spacingLeft=6;swimlaneFillColor=none;fontColor=default;" vertex="1" parent="NyDk6Hg3P52oke4Y1pbq-39">
          <mxGeometry x="30" width="400.00000000000045" height="30" as="geometry">
            <mxRectangle width="400.00000000000045" height="30" as="alternateBounds" />
          </mxGeometry>
        </mxCell>
        <mxCell id="NyDk6Hg3P52oke4Y1pbq-42" value="" style="shape=tableRow;horizontal=0;startSize=0;swimlaneHead=0;swimlaneBody=0;fillColor=#60a917;collapsible=0;dropTarget=0;points=[[0,0.5],[1,0.5]];portConstraint=eastwest;strokeColor=inherit;top=0;left=0;right=0;bottom=0;swimlaneFillColor=none;fontColor=#ffffff;" vertex="1" parent="NyDk6Hg3P52oke4Y1pbq-32">
          <mxGeometry y="120" width="430.00000000000045" height="30" as="geometry" />
        </mxCell>
        <mxCell id="NyDk6Hg3P52oke4Y1pbq-43" value="" style="shape=partialRectangle;overflow=hidden;connectable=0;fillColor=light-dark(#60a917, #224103);strokeColor=inherit;top=0;left=0;bottom=0;right=1;swimlaneFillColor=none;fontColor=default;" vertex="1" parent="NyDk6Hg3P52oke4Y1pbq-42">
          <mxGeometry width="30" height="30" as="geometry">
            <mxRectangle width="30" height="30" as="alternateBounds" />
          </mxGeometry>
        </mxCell>
        <mxCell id="NyDk6Hg3P52oke4Y1pbq-44" value="longitude            NUMBER(10, 6)" style="shape=partialRectangle;overflow=hidden;connectable=0;fillColor=light-dark(#60a917, #224103);align=left;strokeColor=inherit;top=0;left=1;bottom=0;right=0;spacingLeft=6;swimlaneFillColor=none;fontColor=default;" vertex="1" parent="NyDk6Hg3P52oke4Y1pbq-42">
          <mxGeometry x="30" width="400.00000000000045" height="30" as="geometry">
            <mxRectangle width="400.00000000000045" height="30" as="alternateBounds" />
          </mxGeometry>
        </mxCell>
        <mxCell id="NyDk6Hg3P52oke4Y1pbq-45" value="" style="shape=tableRow;horizontal=0;startSize=0;swimlaneHead=0;swimlaneBody=0;fillColor=#60a917;collapsible=0;dropTarget=0;points=[[0,0.5],[1,0.5]];portConstraint=eastwest;strokeColor=inherit;top=0;left=0;right=0;bottom=0;swimlaneFillColor=none;fontColor=#ffffff;" vertex="1" parent="NyDk6Hg3P52oke4Y1pbq-32">
          <mxGeometry y="150" width="430.00000000000045" height="30" as="geometry" />
        </mxCell>
        <mxCell id="NyDk6Hg3P52oke4Y1pbq-46" value="" style="shape=partialRectangle;overflow=hidden;connectable=0;fillColor=light-dark(#60a917, #224103);strokeColor=inherit;top=0;left=0;bottom=0;right=1;swimlaneFillColor=none;fontColor=default;" vertex="1" parent="NyDk6Hg3P52oke4Y1pbq-45">
          <mxGeometry width="30" height="30" as="geometry">
            <mxRectangle width="30" height="30" as="alternateBounds" />
          </mxGeometry>
        </mxCell>
        <mxCell id="NyDk6Hg3P52oke4Y1pbq-47" value="cidade               VARCHAR2(100)" style="shape=partialRectangle;overflow=hidden;connectable=0;fillColor=light-dark(#60a917, #224103);align=left;strokeColor=inherit;top=0;left=1;bottom=0;right=0;spacingLeft=6;swimlaneFillColor=none;fontColor=default;" vertex="1" parent="NyDk6Hg3P52oke4Y1pbq-45">
          <mxGeometry x="30" width="400.00000000000045" height="30" as="geometry">
            <mxRectangle width="400.00000000000045" height="30" as="alternateBounds" />
          </mxGeometry>
        </mxCell>
        <mxCell id="NyDk6Hg3P52oke4Y1pbq-48" value="" style="shape=tableRow;horizontal=0;startSize=0;swimlaneHead=0;swimlaneBody=0;fillColor=#60a917;collapsible=0;dropTarget=0;points=[[0,0.5],[1,0.5]];portConstraint=eastwest;strokeColor=inherit;top=0;left=0;right=0;bottom=0;swimlaneFillColor=none;fontColor=#ffffff;" vertex="1" parent="NyDk6Hg3P52oke4Y1pbq-32">
          <mxGeometry y="180" width="430.00000000000045" height="30" as="geometry" />
        </mxCell>
        <mxCell id="NyDk6Hg3P52oke4Y1pbq-49" value="" style="shape=partialRectangle;overflow=hidden;connectable=0;fillColor=light-dark(#60a917, #224103);strokeColor=inherit;top=0;left=0;bottom=0;right=1;swimlaneFillColor=none;fontColor=default;" vertex="1" parent="NyDk6Hg3P52oke4Y1pbq-48">
          <mxGeometry width="30" height="30" as="geometry">
            <mxRectangle width="30" height="30" as="alternateBounds" />
          </mxGeometry>
        </mxCell>
        <mxCell id="NyDk6Hg3P52oke4Y1pbq-50" value="estado               VARCHAR2(100)" style="shape=partialRectangle;overflow=hidden;connectable=0;fillColor=light-dark(#60a917, #224103);align=left;strokeColor=inherit;top=0;left=1;bottom=0;right=0;spacingLeft=6;swimlaneFillColor=none;fontColor=default;" vertex="1" parent="NyDk6Hg3P52oke4Y1pbq-48">
          <mxGeometry x="30" width="400.00000000000045" height="30" as="geometry">
            <mxRectangle width="400.00000000000045" height="30" as="alternateBounds" />
          </mxGeometry>
        </mxCell>
        <mxCell id="NyDk6Hg3P52oke4Y1pbq-51" value="" style="shape=tableRow;horizontal=0;startSize=0;swimlaneHead=0;swimlaneBody=0;fillColor=#60a917;collapsible=0;dropTarget=0;points=[[0,0.5],[1,0.5]];portConstraint=eastwest;strokeColor=inherit;top=0;left=0;right=0;bottom=0;swimlaneFillColor=none;fontColor=#ffffff;" vertex="1" parent="NyDk6Hg3P52oke4Y1pbq-32">
          <mxGeometry y="210" width="430.00000000000045" height="30" as="geometry" />
        </mxCell>
        <mxCell id="NyDk6Hg3P52oke4Y1pbq-52" value="" style="shape=partialRectangle;overflow=hidden;connectable=0;fillColor=light-dark(#60a917, #224103);strokeColor=inherit;top=0;left=0;bottom=0;right=1;swimlaneFillColor=none;fontColor=default;" vertex="1" parent="NyDk6Hg3P52oke4Y1pbq-51">
          <mxGeometry width="30" height="30" as="geometry">
            <mxRectangle width="30" height="30" as="alternateBounds" />
          </mxGeometry>
        </mxCell>
        <mxCell id="NyDk6Hg3P52oke4Y1pbq-53" value="pais                 VARCHAR2(100)" style="shape=partialRectangle;overflow=hidden;connectable=0;fillColor=light-dark(#60a917, #224103);align=left;strokeColor=inherit;top=0;left=1;bottom=0;right=0;spacingLeft=6;swimlaneFillColor=none;fontColor=default;" vertex="1" parent="NyDk6Hg3P52oke4Y1pbq-51">
          <mxGeometry x="30" width="400.00000000000045" height="30" as="geometry">
            <mxRectangle width="400.00000000000045" height="30" as="alternateBounds" />
          </mxGeometry>
        </mxCell>
        <mxCell id="NyDk6Hg3P52oke4Y1pbq-54" value="recurso" style="shape=table;startSize=30;container=1;collapsible=1;childLayout=tableLayout;fixedRows=1;rowLines=0;fontStyle=1;align=center;resizeLast=1;fillColor=#60a917;strokeColor=default;fontColor=default;swimlaneFillColor=none;" vertex="1" parent="1">
          <mxGeometry x="40" y="450" width="410.0000000000002" height="150" as="geometry" />
        </mxCell>
        <mxCell id="NyDk6Hg3P52oke4Y1pbq-55" value="" style="shape=tableRow;horizontal=0;startSize=0;swimlaneHead=0;swimlaneBody=0;fillColor=#60a917;collapsible=0;dropTarget=0;points=[[0,0.5],[1,0.5]];portConstraint=eastwest;strokeColor=inherit;top=0;left=0;right=0;bottom=1;swimlaneFillColor=none;fontColor=#ffffff;" vertex="1" parent="NyDk6Hg3P52oke4Y1pbq-54">
          <mxGeometry y="30" width="410.0000000000002" height="30" as="geometry" />
        </mxCell>
        <mxCell id="NyDk6Hg3P52oke4Y1pbq-56" value="PK" style="shape=partialRectangle;overflow=hidden;connectable=0;fillColor=light-dark(#60a917, #224103);strokeColor=inherit;top=1;left=0;bottom=1;right=1;fontStyle=1;swimlaneFillColor=none;fontColor=default;" vertex="1" parent="NyDk6Hg3P52oke4Y1pbq-55">
          <mxGeometry width="30" height="30" as="geometry">
            <mxRectangle width="30" height="30" as="alternateBounds" />
          </mxGeometry>
        </mxCell>
        <mxCell id="NyDk6Hg3P52oke4Y1pbq-57" value="id_recurso           NUMBER GENERATED BY DEFAULT AS IDENTITY " style="shape=partialRectangle;overflow=hidden;connectable=0;fillColor=light-dark(#60a917, #224103);align=left;strokeColor=inherit;top=1;left=1;bottom=1;right=0;spacingLeft=6;fontStyle=5;swimlaneFillColor=none;fontColor=default;" vertex="1" parent="NyDk6Hg3P52oke4Y1pbq-55">
          <mxGeometry x="30" width="380.0000000000002" height="30" as="geometry">
            <mxRectangle width="380.0000000000002" height="30" as="alternateBounds" />
          </mxGeometry>
        </mxCell>
        <mxCell id="NyDk6Hg3P52oke4Y1pbq-58" value="" style="shape=tableRow;horizontal=0;startSize=0;swimlaneHead=0;swimlaneBody=0;fillColor=#60a917;collapsible=0;dropTarget=0;points=[[0,0.5],[1,0.5]];portConstraint=eastwest;strokeColor=inherit;top=0;left=0;right=0;bottom=0;swimlaneFillColor=none;fontColor=#ffffff;" vertex="1" parent="NyDk6Hg3P52oke4Y1pbq-54">
          <mxGeometry y="60" width="410.0000000000002" height="30" as="geometry" />
        </mxCell>
        <mxCell id="NyDk6Hg3P52oke4Y1pbq-59" value="" style="shape=partialRectangle;overflow=hidden;connectable=0;fillColor=light-dark(#60a917, #224103);strokeColor=inherit;top=0;left=0;bottom=0;right=1;swimlaneFillColor=none;fontColor=default;" vertex="1" parent="NyDk6Hg3P52oke4Y1pbq-58">
          <mxGeometry width="30" height="30" as="geometry">
            <mxRectangle width="30" height="30" as="alternateBounds" />
          </mxGeometry>
        </mxCell>
        <mxCell id="NyDk6Hg3P52oke4Y1pbq-60" value="nome                 VARCHAR2(100) NOT NULL" style="shape=partialRectangle;overflow=hidden;connectable=0;fillColor=light-dark(#60a917, #224103);align=left;strokeColor=inherit;top=0;left=1;bottom=0;right=0;spacingLeft=6;swimlaneFillColor=none;fontColor=default;" vertex="1" parent="NyDk6Hg3P52oke4Y1pbq-58">
          <mxGeometry x="30" width="380.0000000000002" height="30" as="geometry">
            <mxRectangle width="380.0000000000002" height="30" as="alternateBounds" />
          </mxGeometry>
        </mxCell>
        <mxCell id="NyDk6Hg3P52oke4Y1pbq-61" value="" style="shape=tableRow;horizontal=0;startSize=0;swimlaneHead=0;swimlaneBody=0;fillColor=#60a917;collapsible=0;dropTarget=0;points=[[0,0.5],[1,0.5]];portConstraint=eastwest;strokeColor=inherit;top=0;left=0;right=0;bottom=0;swimlaneFillColor=none;fontColor=#ffffff;" vertex="1" parent="NyDk6Hg3P52oke4Y1pbq-54">
          <mxGeometry y="90" width="410.0000000000002" height="30" as="geometry" />
        </mxCell>
        <mxCell id="NyDk6Hg3P52oke4Y1pbq-62" value="" style="shape=partialRectangle;overflow=hidden;connectable=0;fillColor=light-dark(#60a917, #224103);strokeColor=inherit;top=0;left=0;bottom=0;right=1;swimlaneFillColor=none;fontColor=default;" vertex="1" parent="NyDk6Hg3P52oke4Y1pbq-61">
          <mxGeometry width="30" height="30" as="geometry">
            <mxRectangle width="30" height="30" as="alternateBounds" />
          </mxGeometry>
        </mxCell>
        <mxCell id="NyDk6Hg3P52oke4Y1pbq-63" value="descricao            VARCHAR2(255)" style="shape=partialRectangle;overflow=hidden;connectable=0;fillColor=light-dark(#60a917, #224103);align=left;strokeColor=inherit;top=0;left=1;bottom=0;right=0;spacingLeft=6;swimlaneFillColor=none;fontColor=default;" vertex="1" parent="NyDk6Hg3P52oke4Y1pbq-61">
          <mxGeometry x="30" width="380.0000000000002" height="30" as="geometry">
            <mxRectangle width="380.0000000000002" height="30" as="alternateBounds" />
          </mxGeometry>
        </mxCell>
        <mxCell id="NyDk6Hg3P52oke4Y1pbq-64" value="" style="shape=tableRow;horizontal=0;startSize=0;swimlaneHead=0;swimlaneBody=0;fillColor=#60a917;collapsible=0;dropTarget=0;points=[[0,0.5],[1,0.5]];portConstraint=eastwest;strokeColor=inherit;top=0;left=0;right=0;bottom=0;swimlaneFillColor=none;fontColor=#ffffff;" vertex="1" parent="NyDk6Hg3P52oke4Y1pbq-54">
          <mxGeometry y="120" width="410.0000000000002" height="30" as="geometry" />
        </mxCell>
        <mxCell id="NyDk6Hg3P52oke4Y1pbq-65" value="" style="shape=partialRectangle;overflow=hidden;connectable=0;fillColor=light-dark(#60a917, #224103);strokeColor=inherit;top=0;left=0;bottom=0;right=1;swimlaneFillColor=none;fontColor=default;" vertex="1" parent="NyDk6Hg3P52oke4Y1pbq-64">
          <mxGeometry width="30" height="30" as="geometry">
            <mxRectangle width="30" height="30" as="alternateBounds" />
          </mxGeometry>
        </mxCell>
        <mxCell id="NyDk6Hg3P52oke4Y1pbq-66" value="categoria            VARCHAR2(50) NOT NULL" style="shape=partialRectangle;overflow=hidden;connectable=0;fillColor=light-dark(#60a917, #224103);align=left;strokeColor=inherit;top=0;left=1;bottom=0;right=0;spacingLeft=6;swimlaneFillColor=none;fontColor=default;" vertex="1" parent="NyDk6Hg3P52oke4Y1pbq-64">
          <mxGeometry x="30" width="380.0000000000002" height="30" as="geometry">
            <mxRectangle width="380.0000000000002" height="30" as="alternateBounds" />
          </mxGeometry>
        </mxCell>
        <mxCell id="NyDk6Hg3P52oke4Y1pbq-67" value="recurso_disponivel" style="shape=table;startSize=30;container=1;collapsible=1;childLayout=tableLayout;fixedRows=1;rowLines=0;fontStyle=1;align=center;resizeLast=1;fillColor=#60a917;strokeColor=default;fontColor=default;swimlaneFillColor=none;" vertex="1" parent="1">
          <mxGeometry x="700" y="420" width="500" height="180" as="geometry" />
        </mxCell>
        <mxCell id="NyDk6Hg3P52oke4Y1pbq-68" value="" style="shape=tableRow;horizontal=0;startSize=0;swimlaneHead=0;swimlaneBody=0;fillColor=#60a917;collapsible=0;dropTarget=0;points=[[0,0.5],[1,0.5]];portConstraint=eastwest;strokeColor=inherit;top=0;left=0;right=0;bottom=1;swimlaneFillColor=none;fontColor=#ffffff;" vertex="1" parent="NyDk6Hg3P52oke4Y1pbq-67">
          <mxGeometry y="30" width="500" height="30" as="geometry" />
        </mxCell>
        <mxCell id="NyDk6Hg3P52oke4Y1pbq-69" value="PK" style="shape=partialRectangle;overflow=hidden;connectable=0;fillColor=light-dark(#60a917, #224103);strokeColor=inherit;top=1;left=0;bottom=1;right=1;fontStyle=1;swimlaneFillColor=none;fontColor=default;" vertex="1" parent="NyDk6Hg3P52oke4Y1pbq-68">
          <mxGeometry width="30" height="30" as="geometry">
            <mxRectangle width="30" height="30" as="alternateBounds" />
          </mxGeometry>
        </mxCell>
        <mxCell id="NyDk6Hg3P52oke4Y1pbq-70" value="id_disponibilidade NUMBER GENERATED BY DEFAULT AS IDENTITY" style="shape=partialRectangle;overflow=hidden;connectable=0;fillColor=light-dark(#60a917, #224103);align=left;strokeColor=inherit;top=1;left=1;bottom=1;right=0;spacingLeft=6;fontStyle=5;swimlaneFillColor=none;fontColor=default;" vertex="1" parent="NyDk6Hg3P52oke4Y1pbq-68">
          <mxGeometry x="30" width="470" height="30" as="geometry">
            <mxRectangle width="470" height="30" as="alternateBounds" />
          </mxGeometry>
        </mxCell>
        <mxCell id="NyDk6Hg3P52oke4Y1pbq-71" value="" style="shape=tableRow;horizontal=0;startSize=0;swimlaneHead=0;swimlaneBody=0;fillColor=#60a917;collapsible=0;dropTarget=0;points=[[0,0.5],[1,0.5]];portConstraint=eastwest;strokeColor=inherit;top=0;left=0;right=0;bottom=1;swimlaneFillColor=none;fontColor=#ffffff;" vertex="1" parent="NyDk6Hg3P52oke4Y1pbq-67">
          <mxGeometry y="60" width="500" height="30" as="geometry" />
        </mxCell>
        <mxCell id="NyDk6Hg3P52oke4Y1pbq-72" value="FK" style="shape=partialRectangle;overflow=hidden;connectable=0;fillColor=light-dark(#60a917, #224103);strokeColor=inherit;top=0;left=0;bottom=1;right=1;fontStyle=1;swimlaneFillColor=none;fontColor=default;" vertex="1" parent="NyDk6Hg3P52oke4Y1pbq-71">
          <mxGeometry width="30" height="30" as="geometry">
            <mxRectangle width="30" height="30" as="alternateBounds" />
          </mxGeometry>
        </mxCell>
        <mxCell id="NyDk6Hg3P52oke4Y1pbq-73" value="id_recurso           NUMBER NOT NULL REFERENCES recurso(id_recurso)" style="shape=partialRectangle;overflow=hidden;connectable=0;fillColor=light-dark(#60a917, #224103);align=left;strokeColor=inherit;top=0;left=1;bottom=1;right=0;spacingLeft=6;fontStyle=5;swimlaneFillColor=none;fontColor=default;" vertex="1" parent="NyDk6Hg3P52oke4Y1pbq-71">
          <mxGeometry x="30" width="470" height="30" as="geometry">
            <mxRectangle width="470" height="30" as="alternateBounds" />
          </mxGeometry>
        </mxCell>
        <mxCell id="NyDk6Hg3P52oke4Y1pbq-74" value="" style="shape=tableRow;horizontal=0;startSize=0;swimlaneHead=0;swimlaneBody=0;fillColor=#60a917;collapsible=0;dropTarget=0;points=[[0,0.5],[1,0.5]];portConstraint=eastwest;strokeColor=inherit;top=0;left=0;right=0;bottom=1;swimlaneFillColor=none;fontColor=#ffffff;" vertex="1" parent="NyDk6Hg3P52oke4Y1pbq-67">
          <mxGeometry y="90" width="500" height="30" as="geometry" />
        </mxCell>
        <mxCell id="NyDk6Hg3P52oke4Y1pbq-75" value="FK" style="shape=partialRectangle;overflow=hidden;connectable=0;fillColor=light-dark(#60a917, #224103);strokeColor=inherit;top=0;left=0;bottom=1;right=1;fontStyle=1;swimlaneFillColor=none;fontColor=default;" vertex="1" parent="NyDk6Hg3P52oke4Y1pbq-74">
          <mxGeometry width="30" height="30" as="geometry">
            <mxRectangle width="30" height="30" as="alternateBounds" />
          </mxGeometry>
        </mxCell>
        <mxCell id="NyDk6Hg3P52oke4Y1pbq-76" value="id_localizacao NUMBER NOT NULL REFERENCES localizacao(id_localizacao) " style="shape=partialRectangle;overflow=hidden;connectable=0;fillColor=light-dark(#60a917, #224103);align=left;strokeColor=inherit;top=0;left=1;bottom=1;right=0;spacingLeft=6;fontStyle=5;swimlaneFillColor=none;fontColor=default;" vertex="1" parent="NyDk6Hg3P52oke4Y1pbq-74">
          <mxGeometry x="30" width="470" height="30" as="geometry">
            <mxRectangle width="470" height="30" as="alternateBounds" />
          </mxGeometry>
        </mxCell>
        <mxCell id="NyDk6Hg3P52oke4Y1pbq-77" value="" style="shape=tableRow;horizontal=0;startSize=0;swimlaneHead=0;swimlaneBody=0;fillColor=#60a917;collapsible=0;dropTarget=0;points=[[0,0.5],[1,0.5]];portConstraint=eastwest;strokeColor=inherit;top=0;left=0;right=0;bottom=0;swimlaneFillColor=none;fontColor=#ffffff;" vertex="1" parent="NyDk6Hg3P52oke4Y1pbq-67">
          <mxGeometry y="120" width="500" height="30" as="geometry" />
        </mxCell>
        <mxCell id="NyDk6Hg3P52oke4Y1pbq-78" value="" style="shape=partialRectangle;overflow=hidden;connectable=0;fillColor=light-dark(#60a917, #224103);strokeColor=inherit;top=0;left=0;bottom=0;right=1;swimlaneFillColor=none;fontColor=default;" vertex="1" parent="NyDk6Hg3P52oke4Y1pbq-77">
          <mxGeometry width="30" height="30" as="geometry">
            <mxRectangle width="30" height="30" as="alternateBounds" />
          </mxGeometry>
        </mxCell>
        <mxCell id="NyDk6Hg3P52oke4Y1pbq-79" value="quantidade_disponivel NUMBER DEFAULT 0" style="shape=partialRectangle;overflow=hidden;connectable=0;fillColor=light-dark(#60a917, #224103);align=left;strokeColor=inherit;top=0;left=1;bottom=0;right=0;spacingLeft=6;swimlaneFillColor=none;fontColor=default;" vertex="1" parent="NyDk6Hg3P52oke4Y1pbq-77">
          <mxGeometry x="30" width="470" height="30" as="geometry">
            <mxRectangle width="470" height="30" as="alternateBounds" />
          </mxGeometry>
        </mxCell>
        <mxCell id="NyDk6Hg3P52oke4Y1pbq-80" value="" style="shape=tableRow;horizontal=0;startSize=0;swimlaneHead=0;swimlaneBody=0;fillColor=#60a917;collapsible=0;dropTarget=0;points=[[0,0.5],[1,0.5]];portConstraint=eastwest;strokeColor=inherit;top=0;left=0;right=0;bottom=0;swimlaneFillColor=none;fontColor=#ffffff;" vertex="1" parent="NyDk6Hg3P52oke4Y1pbq-67">
          <mxGeometry y="150" width="500" height="30" as="geometry" />
        </mxCell>
        <mxCell id="NyDk6Hg3P52oke4Y1pbq-81" value="" style="shape=partialRectangle;overflow=hidden;connectable=0;fillColor=light-dark(#60a917, #224103);strokeColor=inherit;top=0;left=0;bottom=0;right=1;swimlaneFillColor=none;fontColor=default;" vertex="1" parent="NyDk6Hg3P52oke4Y1pbq-80">
          <mxGeometry width="30" height="30" as="geometry">
            <mxRectangle width="30" height="30" as="alternateBounds" />
          </mxGeometry>
        </mxCell>
        <mxCell id="NyDk6Hg3P52oke4Y1pbq-82" value="ultima_atualizacao   DATE DEFAULT SYSDATE" style="shape=partialRectangle;overflow=hidden;connectable=0;fillColor=light-dark(#60a917, #224103);align=left;strokeColor=inherit;top=0;left=1;bottom=0;right=0;spacingLeft=6;swimlaneFillColor=none;fontColor=default;" vertex="1" parent="NyDk6Hg3P52oke4Y1pbq-80">
          <mxGeometry x="30" width="470" height="30" as="geometry">
            <mxRectangle width="470" height="30" as="alternateBounds" />
          </mxGeometry>
        </mxCell>
        <mxCell id="NyDk6Hg3P52oke4Y1pbq-83" value="doacao" style="shape=table;startSize=30;container=1;collapsible=1;childLayout=tableLayout;fixedRows=1;rowLines=0;fontStyle=1;align=center;resizeLast=1;fillColor=#60a917;strokeColor=default;fontColor=default;swimlaneFillColor=none;" vertex="1" parent="1">
          <mxGeometry x="600" width="440" height="240" as="geometry" />
        </mxCell>
        <mxCell id="NyDk6Hg3P52oke4Y1pbq-84" value="" style="shape=tableRow;horizontal=0;startSize=0;swimlaneHead=0;swimlaneBody=0;fillColor=#60a917;collapsible=0;dropTarget=0;points=[[0,0.5],[1,0.5]];portConstraint=eastwest;strokeColor=inherit;top=0;left=0;right=0;bottom=1;swimlaneFillColor=none;fontColor=#ffffff;" vertex="1" parent="NyDk6Hg3P52oke4Y1pbq-83">
          <mxGeometry y="30" width="440" height="30" as="geometry" />
        </mxCell>
        <mxCell id="NyDk6Hg3P52oke4Y1pbq-85" value="PK" style="shape=partialRectangle;overflow=hidden;connectable=0;fillColor=light-dark(#60a917, #224103);strokeColor=inherit;top=1;left=0;bottom=1;right=1;fontStyle=1;swimlaneFillColor=none;fontColor=default;" vertex="1" parent="NyDk6Hg3P52oke4Y1pbq-84">
          <mxGeometry width="30" height="30" as="geometry">
            <mxRectangle width="30" height="30" as="alternateBounds" />
          </mxGeometry>
        </mxCell>
        <mxCell id="NyDk6Hg3P52oke4Y1pbq-86" value="id_doacao NUMBER GENERATED BY DEFAULT AS IDENTITY" style="shape=partialRectangle;overflow=hidden;connectable=0;fillColor=light-dark(#60a917, #224103);align=left;strokeColor=inherit;top=1;left=1;bottom=1;right=0;spacingLeft=6;fontStyle=5;swimlaneFillColor=none;fontColor=default;" vertex="1" parent="NyDk6Hg3P52oke4Y1pbq-84">
          <mxGeometry x="30" width="410" height="30" as="geometry">
            <mxRectangle width="410" height="30" as="alternateBounds" />
          </mxGeometry>
        </mxCell>
        <mxCell id="NyDk6Hg3P52oke4Y1pbq-87" value="" style="shape=tableRow;horizontal=0;startSize=0;swimlaneHead=0;swimlaneBody=0;fillColor=#60a917;collapsible=0;dropTarget=0;points=[[0,0.5],[1,0.5]];portConstraint=eastwest;strokeColor=inherit;top=0;left=0;right=0;bottom=1;swimlaneFillColor=none;fontColor=#ffffff;" vertex="1" parent="NyDk6Hg3P52oke4Y1pbq-83">
          <mxGeometry y="60" width="440" height="30" as="geometry" />
        </mxCell>
        <mxCell id="NyDk6Hg3P52oke4Y1pbq-88" value="FK" style="shape=partialRectangle;overflow=hidden;connectable=0;fillColor=light-dark(#60a917, #224103);strokeColor=inherit;top=0;left=0;bottom=1;right=1;fontStyle=1;swimlaneFillColor=none;fontColor=default;" vertex="1" parent="NyDk6Hg3P52oke4Y1pbq-87">
          <mxGeometry width="30" height="30" as="geometry">
            <mxRectangle width="30" height="30" as="alternateBounds" />
          </mxGeometry>
        </mxCell>
        <mxCell id="NyDk6Hg3P52oke4Y1pbq-89" value="id_usuario NUMBER NOT NULL REFERENCES usuario(id_usuario)" style="shape=partialRectangle;overflow=hidden;connectable=0;fillColor=light-dark(#60a917, #224103);align=left;strokeColor=inherit;top=0;left=1;bottom=1;right=0;spacingLeft=6;fontStyle=5;swimlaneFillColor=none;fontColor=default;" vertex="1" parent="NyDk6Hg3P52oke4Y1pbq-87">
          <mxGeometry x="30" width="410" height="30" as="geometry">
            <mxRectangle width="410" height="30" as="alternateBounds" />
          </mxGeometry>
        </mxCell>
        <mxCell id="NyDk6Hg3P52oke4Y1pbq-90" value="" style="shape=tableRow;horizontal=0;startSize=0;swimlaneHead=0;swimlaneBody=0;fillColor=#60a917;collapsible=0;dropTarget=0;points=[[0,0.5],[1,0.5]];portConstraint=eastwest;strokeColor=inherit;top=0;left=0;right=0;bottom=1;swimlaneFillColor=none;fontColor=#ffffff;" vertex="1" parent="NyDk6Hg3P52oke4Y1pbq-83">
          <mxGeometry y="90" width="440" height="30" as="geometry" />
        </mxCell>
        <mxCell id="NyDk6Hg3P52oke4Y1pbq-91" value="FK" style="shape=partialRectangle;overflow=hidden;connectable=0;fillColor=light-dark(#60a917, #224103);strokeColor=inherit;top=0;left=0;bottom=1;right=1;fontStyle=1;swimlaneFillColor=none;fontColor=default;" vertex="1" parent="NyDk6Hg3P52oke4Y1pbq-90">
          <mxGeometry width="30" height="30" as="geometry">
            <mxRectangle width="30" height="30" as="alternateBounds" />
          </mxGeometry>
        </mxCell>
        <mxCell id="NyDk6Hg3P52oke4Y1pbq-92" value="id_recurso NUMBER NOT NULL REFERENCES recurso(id_recurso)" style="shape=partialRectangle;overflow=hidden;connectable=0;fillColor=light-dark(#60a917, #224103);align=left;strokeColor=inherit;top=0;left=1;bottom=1;right=0;spacingLeft=6;fontStyle=5;swimlaneFillColor=none;fontColor=default;" vertex="1" parent="NyDk6Hg3P52oke4Y1pbq-90">
          <mxGeometry x="30" width="410" height="30" as="geometry">
            <mxRectangle width="410" height="30" as="alternateBounds" />
          </mxGeometry>
        </mxCell>
        <mxCell id="NyDk6Hg3P52oke4Y1pbq-93" value="" style="shape=tableRow;horizontal=0;startSize=0;swimlaneHead=0;swimlaneBody=0;fillColor=#60a917;collapsible=0;dropTarget=0;points=[[0,0.5],[1,0.5]];portConstraint=eastwest;strokeColor=inherit;top=0;left=0;right=0;bottom=1;swimlaneFillColor=none;fontColor=#ffffff;" vertex="1" parent="NyDk6Hg3P52oke4Y1pbq-83">
          <mxGeometry y="120" width="440" height="30" as="geometry" />
        </mxCell>
        <mxCell id="NyDk6Hg3P52oke4Y1pbq-94" value="FK" style="shape=partialRectangle;overflow=hidden;connectable=0;fillColor=light-dark(#60a917, #224103);strokeColor=inherit;top=0;left=0;bottom=1;right=1;fontStyle=1;swimlaneFillColor=none;fontColor=default;" vertex="1" parent="NyDk6Hg3P52oke4Y1pbq-93">
          <mxGeometry width="30" height="30" as="geometry">
            <mxRectangle width="30" height="30" as="alternateBounds" />
          </mxGeometry>
        </mxCell>
        <mxCell id="NyDk6Hg3P52oke4Y1pbq-95" value="id_localizacao NUMBER REFERENCES localizacao(id_localizacao) " style="shape=partialRectangle;overflow=hidden;connectable=0;fillColor=light-dark(#60a917, #224103);align=left;strokeColor=inherit;top=0;left=1;bottom=1;right=0;spacingLeft=6;fontStyle=5;swimlaneFillColor=none;fontColor=default;" vertex="1" parent="NyDk6Hg3P52oke4Y1pbq-93">
          <mxGeometry x="30" width="410" height="30" as="geometry">
            <mxRectangle width="410" height="30" as="alternateBounds" />
          </mxGeometry>
        </mxCell>
        <mxCell id="NyDk6Hg3P52oke4Y1pbq-96" value="" style="shape=tableRow;horizontal=0;startSize=0;swimlaneHead=0;swimlaneBody=0;fillColor=#60a917;collapsible=0;dropTarget=0;points=[[0,0.5],[1,0.5]];portConstraint=eastwest;strokeColor=inherit;top=0;left=0;right=0;bottom=0;swimlaneFillColor=none;fontColor=#ffffff;" vertex="1" parent="NyDk6Hg3P52oke4Y1pbq-83">
          <mxGeometry y="150" width="440" height="30" as="geometry" />
        </mxCell>
        <mxCell id="NyDk6Hg3P52oke4Y1pbq-97" value="" style="shape=partialRectangle;overflow=hidden;connectable=0;fillColor=light-dark(#60a917, #224103);strokeColor=inherit;top=0;left=0;bottom=0;right=1;swimlaneFillColor=none;fontColor=default;" vertex="1" parent="NyDk6Hg3P52oke4Y1pbq-96">
          <mxGeometry width="30" height="30" as="geometry">
            <mxRectangle width="30" height="30" as="alternateBounds" />
          </mxGeometry>
        </mxCell>
        <mxCell id="NyDk6Hg3P52oke4Y1pbq-98" value="quantidade           NUMBER NOT NULL" style="shape=partialRectangle;overflow=hidden;connectable=0;fillColor=light-dark(#60a917, #224103);align=left;strokeColor=inherit;top=0;left=1;bottom=0;right=0;spacingLeft=6;swimlaneFillColor=none;fontColor=default;" vertex="1" parent="NyDk6Hg3P52oke4Y1pbq-96">
          <mxGeometry x="30" width="410" height="30" as="geometry">
            <mxRectangle width="410" height="30" as="alternateBounds" />
          </mxGeometry>
        </mxCell>
        <mxCell id="NyDk6Hg3P52oke4Y1pbq-99" value="" style="shape=tableRow;horizontal=0;startSize=0;swimlaneHead=0;swimlaneBody=0;fillColor=#60a917;collapsible=0;dropTarget=0;points=[[0,0.5],[1,0.5]];portConstraint=eastwest;strokeColor=inherit;top=0;left=0;right=0;bottom=0;swimlaneFillColor=none;fontColor=#ffffff;" vertex="1" parent="NyDk6Hg3P52oke4Y1pbq-83">
          <mxGeometry y="180" width="440" height="30" as="geometry" />
        </mxCell>
        <mxCell id="NyDk6Hg3P52oke4Y1pbq-100" value="" style="shape=partialRectangle;overflow=hidden;connectable=0;fillColor=light-dark(#60a917, #224103);strokeColor=inherit;top=0;left=0;bottom=0;right=1;swimlaneFillColor=none;fontColor=default;" vertex="1" parent="NyDk6Hg3P52oke4Y1pbq-99">
          <mxGeometry width="30" height="30" as="geometry">
            <mxRectangle width="30" height="30" as="alternateBounds" />
          </mxGeometry>
        </mxCell>
        <mxCell id="NyDk6Hg3P52oke4Y1pbq-101" value="data_doacao          DATE DEFAULT SYSDATE" style="shape=partialRectangle;overflow=hidden;connectable=0;fillColor=light-dark(#60a917, #224103);align=left;strokeColor=inherit;top=0;left=1;bottom=0;right=0;spacingLeft=6;swimlaneFillColor=none;fontColor=default;" vertex="1" parent="NyDk6Hg3P52oke4Y1pbq-99">
          <mxGeometry x="30" width="410" height="30" as="geometry">
            <mxRectangle width="410" height="30" as="alternateBounds" />
          </mxGeometry>
        </mxCell>
        <mxCell id="NyDk6Hg3P52oke4Y1pbq-102" value="" style="shape=tableRow;horizontal=0;startSize=0;swimlaneHead=0;swimlaneBody=0;fillColor=#60a917;collapsible=0;dropTarget=0;points=[[0,0.5],[1,0.5]];portConstraint=eastwest;strokeColor=inherit;top=0;left=0;right=0;bottom=0;swimlaneFillColor=none;fontColor=#ffffff;" vertex="1" parent="NyDk6Hg3P52oke4Y1pbq-83">
          <mxGeometry y="210" width="440" height="30" as="geometry" />
        </mxCell>
        <mxCell id="NyDk6Hg3P52oke4Y1pbq-103" value="" style="shape=partialRectangle;overflow=hidden;connectable=0;fillColor=light-dark(#60a917, #224103);strokeColor=inherit;top=0;left=0;bottom=0;right=1;swimlaneFillColor=none;fontColor=default;" vertex="1" parent="NyDk6Hg3P52oke4Y1pbq-102">
          <mxGeometry width="30" height="30" as="geometry">
            <mxRectangle width="30" height="30" as="alternateBounds" />
          </mxGeometry>
        </mxCell>
        <mxCell id="NyDk6Hg3P52oke4Y1pbq-104" value="status               VARCHAR2(20) DEFAULT &#39;PENDENTE&#39;" style="shape=partialRectangle;overflow=hidden;connectable=0;fillColor=light-dark(#60a917, #224103);align=left;strokeColor=inherit;top=0;left=1;bottom=0;right=0;spacingLeft=6;swimlaneFillColor=none;fontColor=default;" vertex="1" parent="NyDk6Hg3P52oke4Y1pbq-102">
          <mxGeometry x="30" width="410" height="30" as="geometry">
            <mxRectangle width="410" height="30" as="alternateBounds" />
          </mxGeometry>
        </mxCell>
        <mxCell id="NyDk6Hg3P52oke4Y1pbq-105" style="edgeStyle=orthogonalEdgeStyle;rounded=0;orthogonalLoop=1;jettySize=auto;html=1;entryX=0;entryY=0.5;entryDx=0;entryDy=0;fontFamily=Helvetica;fontSize=12;fontColor=default;fontStyle=1;startArrow=ERmany;startFill=0;endArrow=ERmany;endFill=0;" edge="1" parent="1" source="NyDk6Hg3P52oke4Y1pbq-107" target="NyDk6Hg3P52oke4Y1pbq-168">
          <mxGeometry relative="1" as="geometry">
            <Array as="points">
              <mxPoint x="790" y="670" />
              <mxPoint x="1310" y="670" />
              <mxPoint x="1310" y="585" />
            </Array>
          </mxGeometry>
        </mxCell>
        <mxCell id="NyDk6Hg3P52oke4Y1pbq-106" value="(logica) habilidade → usuario (N:N)" style="edgeLabel;html=1;align=center;verticalAlign=middle;resizable=0;points=[];strokeColor=default;fontFamily=Helvetica;fontSize=12;fontColor=default;fontStyle=1;fillColor=default;" vertex="1" connectable="0" parent="NyDk6Hg3P52oke4Y1pbq-105">
          <mxGeometry relative="1" as="geometry">
            <mxPoint as="offset" />
          </mxGeometry>
        </mxCell>
        <mxCell id="NyDk6Hg3P52oke4Y1pbq-107" value="habilidade" style="shape=table;startSize=30;container=1;collapsible=1;childLayout=tableLayout;fixedRows=1;rowLines=0;fontStyle=1;align=center;resizeLast=1;fillColor=light-dark(#60a917, #4e9304);strokeColor=default;fontColor=default;swimlaneFillColor=none;" vertex="1" parent="1">
          <mxGeometry x="580" y="720" width="460" height="120" as="geometry" />
        </mxCell>
        <mxCell id="NyDk6Hg3P52oke4Y1pbq-108" value="" style="shape=tableRow;horizontal=0;startSize=0;swimlaneHead=0;swimlaneBody=0;fillColor=#60a917;collapsible=0;dropTarget=0;points=[[0,0.5],[1,0.5]];portConstraint=eastwest;strokeColor=inherit;top=0;left=0;right=0;bottom=1;swimlaneFillColor=none;fontColor=#ffffff;" vertex="1" parent="NyDk6Hg3P52oke4Y1pbq-107">
          <mxGeometry y="30" width="460" height="30" as="geometry" />
        </mxCell>
        <mxCell id="NyDk6Hg3P52oke4Y1pbq-109" value="PK" style="shape=partialRectangle;overflow=hidden;connectable=0;fillColor=light-dark(#60a917, #224103);strokeColor=inherit;top=1;left=0;bottom=1;right=1;fontStyle=1;swimlaneFillColor=none;fontColor=light-dark(#FFFFFF,#FFFFFF);" vertex="1" parent="NyDk6Hg3P52oke4Y1pbq-108">
          <mxGeometry width="30" height="30" as="geometry">
            <mxRectangle width="30" height="30" as="alternateBounds" />
          </mxGeometry>
        </mxCell>
        <mxCell id="NyDk6Hg3P52oke4Y1pbq-110" value="id_habilidade   NUMBER GENERATED BY DEFAULT AS IDENTITY " style="shape=partialRectangle;overflow=hidden;connectable=0;fillColor=light-dark(#60a917, #224103);align=left;strokeColor=inherit;top=1;left=0;bottom=1;right=0;spacingLeft=6;fontStyle=5;swimlaneFillColor=none;fontColor=default;" vertex="1" parent="NyDk6Hg3P52oke4Y1pbq-108">
          <mxGeometry x="30" width="430" height="30" as="geometry">
            <mxRectangle width="430" height="30" as="alternateBounds" />
          </mxGeometry>
        </mxCell>
        <mxCell id="NyDk6Hg3P52oke4Y1pbq-111" value="" style="shape=tableRow;horizontal=0;startSize=0;swimlaneHead=0;swimlaneBody=0;fillColor=#60a917;collapsible=0;dropTarget=0;points=[[0,0.5],[1,0.5]];portConstraint=eastwest;strokeColor=inherit;top=0;left=0;right=0;bottom=0;swimlaneFillColor=none;fontColor=#ffffff;" vertex="1" parent="NyDk6Hg3P52oke4Y1pbq-107">
          <mxGeometry y="60" width="460" height="30" as="geometry" />
        </mxCell>
        <mxCell id="NyDk6Hg3P52oke4Y1pbq-112" value="" style="shape=partialRectangle;overflow=hidden;connectable=0;fillColor=light-dark(#60a917, #224103);strokeColor=inherit;top=0;left=0;bottom=0;right=1;swimlaneFillColor=none;fontColor=light-dark(#FFFFFF,#FFFFFF);" vertex="1" parent="NyDk6Hg3P52oke4Y1pbq-111">
          <mxGeometry width="30" height="30" as="geometry">
            <mxRectangle width="30" height="30" as="alternateBounds" />
          </mxGeometry>
        </mxCell>
        <mxCell id="NyDk6Hg3P52oke4Y1pbq-113" value="nome            VARCHAR2(100) NOT NULL" style="shape=partialRectangle;overflow=hidden;connectable=0;fillColor=light-dark(#60a917, #224103);align=left;strokeColor=inherit;top=0;left=0;bottom=0;right=0;spacingLeft=6;swimlaneFillColor=none;fontColor=default;" vertex="1" parent="NyDk6Hg3P52oke4Y1pbq-111">
          <mxGeometry x="30" width="430" height="30" as="geometry">
            <mxRectangle width="430" height="30" as="alternateBounds" />
          </mxGeometry>
        </mxCell>
        <mxCell id="NyDk6Hg3P52oke4Y1pbq-114" value="" style="shape=tableRow;horizontal=0;startSize=0;swimlaneHead=0;swimlaneBody=0;fillColor=#60a917;collapsible=0;dropTarget=0;points=[[0,0.5],[1,0.5]];portConstraint=eastwest;strokeColor=inherit;top=0;left=0;right=0;bottom=0;swimlaneFillColor=none;fontColor=#ffffff;" vertex="1" parent="NyDk6Hg3P52oke4Y1pbq-107">
          <mxGeometry y="90" width="460" height="30" as="geometry" />
        </mxCell>
        <mxCell id="NyDk6Hg3P52oke4Y1pbq-115" value="" style="shape=partialRectangle;overflow=hidden;connectable=0;fillColor=light-dark(#60a917, #224103);strokeColor=inherit;top=0;left=0;bottom=0;right=1;swimlaneFillColor=none;fontColor=light-dark(#FFFFFF,#FFFFFF);" vertex="1" parent="NyDk6Hg3P52oke4Y1pbq-114">
          <mxGeometry width="30" height="30" as="geometry">
            <mxRectangle width="30" height="30" as="alternateBounds" />
          </mxGeometry>
        </mxCell>
        <mxCell id="NyDk6Hg3P52oke4Y1pbq-116" value="descricao       VARCHAR2(255)" style="shape=partialRectangle;overflow=hidden;connectable=0;fillColor=light-dark(#60a917, #224103);align=left;strokeColor=inherit;top=0;left=0;bottom=0;right=0;spacingLeft=6;swimlaneFillColor=none;fontColor=default;" vertex="1" parent="NyDk6Hg3P52oke4Y1pbq-114">
          <mxGeometry x="30" width="430" height="30" as="geometry">
            <mxRectangle width="430" height="30" as="alternateBounds" />
          </mxGeometry>
        </mxCell>
        <mxCell id="NyDk6Hg3P52oke4Y1pbq-117" value="usuario_habilidade" style="shape=table;startSize=30;container=1;collapsible=1;childLayout=tableLayout;fixedRows=1;rowLines=0;fontStyle=1;align=center;resizeLast=1;fillColor=light-dark(#4E9304,#4E9304);strokeColor=default;fontColor=light-dark(#FFFFFF,#EEEEEE);swimlaneFillColor=light-dark(default, #3d3d3d);fillStyle=auto;gradientColor=none;strokeWidth=2;" vertex="1" parent="1">
          <mxGeometry x="1280" y="800" width="460" height="180" as="geometry">
            <mxRectangle x="-560" y="2200" width="140" height="30" as="alternateBounds" />
          </mxGeometry>
        </mxCell>
        <mxCell id="NyDk6Hg3P52oke4Y1pbq-118" value="" style="shape=tableRow;horizontal=0;startSize=0;swimlaneHead=0;swimlaneBody=0;fillColor=light-dark(#4E9304, #224103);collapsible=0;dropTarget=0;points=[[0,0.5],[1,0.5]];portConstraint=eastwest;strokeColor=inherit;top=0;left=0;right=0;bottom=1;swimlaneFillColor=none;fontColor=light-dark(#FFFFFF,#EEEEEE);" vertex="1" parent="NyDk6Hg3P52oke4Y1pbq-117">
          <mxGeometry y="30" width="460" height="30" as="geometry" />
        </mxCell>
        <mxCell id="NyDk6Hg3P52oke4Y1pbq-119" value="PK" style="shape=partialRectangle;overflow=hidden;connectable=0;fillColor=light-dark(#4E9304, #224103);strokeColor=inherit;top=0;left=0;bottom=1;right=1;fontStyle=1;swimlaneFillColor=none;fontColor=light-dark(#FFFFFF,#EEEEEE);" vertex="1" parent="NyDk6Hg3P52oke4Y1pbq-118">
          <mxGeometry width="30" height="30" as="geometry">
            <mxRectangle width="30" height="30" as="alternateBounds" />
          </mxGeometry>
        </mxCell>
        <mxCell id="NyDk6Hg3P52oke4Y1pbq-120" value="id_habilidade      NUMBER NOT NULL" style="shape=partialRectangle;overflow=hidden;connectable=0;fillColor=light-dark(#4E9304, #224103);align=left;strokeColor=inherit;top=0;left=0;bottom=1;right=0;spacingLeft=6;fontStyle=5;swimlaneFillColor=none;fontColor=light-dark(#FFFFFF,#EEEEEE);" vertex="1" parent="NyDk6Hg3P52oke4Y1pbq-118">
          <mxGeometry x="30" width="430" height="30" as="geometry">
            <mxRectangle width="430" height="30" as="alternateBounds" />
          </mxGeometry>
        </mxCell>
        <mxCell id="NyDk6Hg3P52oke4Y1pbq-121" value="" style="shape=tableRow;horizontal=0;startSize=0;swimlaneHead=0;swimlaneBody=0;fillColor=light-dark(#4E9304,#224103);collapsible=0;dropTarget=0;points=[[0,0.5],[1,0.5]];portConstraint=eastwest;strokeColor=inherit;top=0;left=0;right=0;bottom=1;swimlaneFillColor=none;fontColor=light-dark(#FFFFFF,#EEEEEE);" vertex="1" parent="NyDk6Hg3P52oke4Y1pbq-117">
          <mxGeometry y="60" width="460" height="30" as="geometry" />
        </mxCell>
        <mxCell id="NyDk6Hg3P52oke4Y1pbq-122" value="PK" style="shape=partialRectangle;overflow=hidden;connectable=0;fillColor=light-dark(#4E9304,#224103);strokeColor=inherit;top=0;left=0;bottom=1;right=1;fontStyle=1;swimlaneFillColor=none;fontColor=light-dark(#FFFFFF,#EEEEEE);" vertex="1" parent="NyDk6Hg3P52oke4Y1pbq-121">
          <mxGeometry width="30" height="30" as="geometry">
            <mxRectangle width="30" height="30" as="alternateBounds" />
          </mxGeometry>
        </mxCell>
        <mxCell id="NyDk6Hg3P52oke4Y1pbq-123" value="id_usuario         NUMBER NOT NULL" style="shape=partialRectangle;overflow=hidden;connectable=0;fillColor=light-dark(#4E9304,#224103);align=left;strokeColor=inherit;top=0;left=0;bottom=1;right=0;spacingLeft=6;fontStyle=5;swimlaneFillColor=none;fontColor=light-dark(#FFFFFF,#EEEEEE);" vertex="1" parent="NyDk6Hg3P52oke4Y1pbq-121">
          <mxGeometry x="30" width="430" height="30" as="geometry">
            <mxRectangle width="430" height="30" as="alternateBounds" />
          </mxGeometry>
        </mxCell>
        <mxCell id="NyDk6Hg3P52oke4Y1pbq-124" value="" style="shape=tableRow;horizontal=0;startSize=0;swimlaneHead=0;swimlaneBody=0;fillColor=light-dark(#4E9304,#224103);collapsible=0;dropTarget=0;points=[[0,0.5],[1,0.5]];portConstraint=eastwest;strokeColor=inherit;top=0;left=0;right=0;bottom=0;swimlaneFillColor=none;fontColor=light-dark(#FFFFFF,#EEEEEE);" vertex="1" parent="NyDk6Hg3P52oke4Y1pbq-117">
          <mxGeometry y="90" width="460" height="30" as="geometry" />
        </mxCell>
        <mxCell id="NyDk6Hg3P52oke4Y1pbq-125" value="FK" style="shape=partialRectangle;overflow=hidden;connectable=0;fillColor=light-dark(#4E9304,#224103);strokeColor=inherit;top=0;left=0;bottom=1;right=1;fontStyle=1;swimlaneFillColor=none;fontColor=light-dark(#FFFFFF,#EEEEEE);" vertex="1" parent="NyDk6Hg3P52oke4Y1pbq-124">
          <mxGeometry width="30" height="30" as="geometry">
            <mxRectangle width="30" height="30" as="alternateBounds" />
          </mxGeometry>
        </mxCell>
        <mxCell id="NyDk6Hg3P52oke4Y1pbq-126" value="FOREIGN KEY (id_usuario) REFERENCES usuario(id_usuario)" style="shape=partialRectangle;overflow=hidden;connectable=0;fillColor=light-dark(#4E9304,#224103);align=left;strokeColor=inherit;top=0;left=0;bottom=1;right=0;spacingLeft=6;fontStyle=1;swimlaneFillColor=none;fontColor=light-dark(#FFFFFF,#EEEEEE);" vertex="1" parent="NyDk6Hg3P52oke4Y1pbq-124">
          <mxGeometry x="30" width="430" height="30" as="geometry">
            <mxRectangle width="430" height="30" as="alternateBounds" />
          </mxGeometry>
        </mxCell>
        <mxCell id="NyDk6Hg3P52oke4Y1pbq-127" value="" style="shape=tableRow;horizontal=0;startSize=0;swimlaneHead=0;swimlaneBody=0;fillColor=light-dark(#4E9304,#224103);collapsible=0;dropTarget=0;points=[[0,0.5],[1,0.5]];portConstraint=eastwest;strokeColor=inherit;top=0;left=0;right=0;bottom=0;swimlaneFillColor=none;fontColor=light-dark(#FFFFFF,#EEEEEE);" vertex="1" parent="NyDk6Hg3P52oke4Y1pbq-117">
          <mxGeometry y="120" width="460" height="30" as="geometry" />
        </mxCell>
        <mxCell id="NyDk6Hg3P52oke4Y1pbq-128" value="FK" style="shape=partialRectangle;overflow=hidden;connectable=0;fillColor=light-dark(#4E9304,#224103);strokeColor=inherit;top=0;left=0;bottom=1;right=1;fontStyle=1;swimlaneFillColor=none;fontColor=light-dark(#FFFFFF,#EEEEEE);" vertex="1" parent="NyDk6Hg3P52oke4Y1pbq-127">
          <mxGeometry width="30" height="30" as="geometry">
            <mxRectangle width="30" height="30" as="alternateBounds" />
          </mxGeometry>
        </mxCell>
        <mxCell id="NyDk6Hg3P52oke4Y1pbq-129" value="FOREIGN KEY (id_habilidade) REFERENCES habilidade(id_habilidade)" style="shape=partialRectangle;overflow=hidden;connectable=0;fillColor=light-dark(#4E9304,#224103);align=left;strokeColor=inherit;top=0;left=0;bottom=1;right=0;spacingLeft=6;fontStyle=1;swimlaneFillColor=none;fontColor=light-dark(#FFFFFF,#EEEEEE);" vertex="1" parent="NyDk6Hg3P52oke4Y1pbq-127">
          <mxGeometry x="30" width="430" height="30" as="geometry">
            <mxRectangle width="430" height="30" as="alternateBounds" />
          </mxGeometry>
        </mxCell>
        <mxCell id="NyDk6Hg3P52oke4Y1pbq-130" value="" style="shape=tableRow;horizontal=0;startSize=0;swimlaneHead=0;swimlaneBody=0;fillColor=light-dark(#4E9304,#224103);collapsible=0;dropTarget=0;points=[[0,0.5],[1,0.5]];portConstraint=eastwest;strokeColor=inherit;top=0;left=0;right=0;bottom=0;swimlaneFillColor=none;fontColor=light-dark(#FFFFFF,#EEEEEE);" vertex="1" parent="NyDk6Hg3P52oke4Y1pbq-117">
          <mxGeometry y="150" width="460" height="30" as="geometry" />
        </mxCell>
        <mxCell id="NyDk6Hg3P52oke4Y1pbq-131" value="" style="shape=partialRectangle;overflow=hidden;connectable=0;fillColor=light-dark(#4E9304,#224103);strokeColor=inherit;top=0;left=0;bottom=0;right=1;swimlaneFillColor=none;fontColor=light-dark(#FFFFFF,#EEEEEE);" vertex="1" parent="NyDk6Hg3P52oke4Y1pbq-130">
          <mxGeometry width="30" height="30" as="geometry">
            <mxRectangle width="30" height="30" as="alternateBounds" />
          </mxGeometry>
        </mxCell>
        <mxCell id="NyDk6Hg3P52oke4Y1pbq-132" value="nivel VARCHAR2(50)" style="shape=partialRectangle;overflow=hidden;connectable=0;fillColor=light-dark(#4E9304,#224103);align=left;strokeColor=inherit;top=0;left=0;bottom=0;right=0;spacingLeft=6;swimlaneFillColor=none;fontColor=light-dark(#FFFFFF,#EEEEEE);" vertex="1" parent="NyDk6Hg3P52oke4Y1pbq-130">
          <mxGeometry x="30" width="430" height="30" as="geometry">
            <mxRectangle width="430" height="30" as="alternateBounds" />
          </mxGeometry>
        </mxCell>
        <mxCell id="NyDk6Hg3P52oke4Y1pbq-133" value="alerta" style="shape=table;startSize=30;container=1;collapsible=1;childLayout=tableLayout;fixedRows=1;rowLines=0;fontStyle=1;align=center;resizeLast=1;fillColor=#60a917;strokeColor=default;fontColor=default;swimlaneFillColor=none;" vertex="1" parent="1">
          <mxGeometry x="2180" y="40" width="580" height="240" as="geometry" />
        </mxCell>
        <mxCell id="NyDk6Hg3P52oke4Y1pbq-134" value="" style="shape=tableRow;horizontal=0;startSize=0;swimlaneHead=0;swimlaneBody=0;fillColor=#60a917;collapsible=0;dropTarget=0;points=[[0,0.5],[1,0.5]];portConstraint=eastwest;strokeColor=inherit;top=0;left=0;right=0;bottom=1;swimlaneFillColor=none;fontColor=#ffffff;" vertex="1" parent="NyDk6Hg3P52oke4Y1pbq-133">
          <mxGeometry y="30" width="580" height="30" as="geometry" />
        </mxCell>
        <mxCell id="NyDk6Hg3P52oke4Y1pbq-135" value="PK" style="shape=partialRectangle;overflow=hidden;connectable=0;fillColor=light-dark(#60a917, #224103);strokeColor=inherit;top=1;left=0;bottom=1;right=1;fontStyle=1;swimlaneFillColor=none;fontColor=default;" vertex="1" parent="NyDk6Hg3P52oke4Y1pbq-134">
          <mxGeometry width="30" height="30" as="geometry">
            <mxRectangle width="30" height="30" as="alternateBounds" />
          </mxGeometry>
        </mxCell>
        <mxCell id="NyDk6Hg3P52oke4Y1pbq-136" value="id_alerta            NUMBER GENERATED BY DEFAULT AS IDENTITY " style="shape=partialRectangle;overflow=hidden;connectable=0;fillColor=light-dark(#60a917, #224103);align=left;strokeColor=inherit;top=1;left=1;bottom=1;right=0;spacingLeft=6;fontStyle=5;swimlaneFillColor=none;fontColor=default;" vertex="1" parent="NyDk6Hg3P52oke4Y1pbq-134">
          <mxGeometry x="30" width="550" height="30" as="geometry">
            <mxRectangle width="550" height="30" as="alternateBounds" />
          </mxGeometry>
        </mxCell>
        <mxCell id="NyDk6Hg3P52oke4Y1pbq-137" value="" style="shape=tableRow;horizontal=0;startSize=0;swimlaneHead=0;swimlaneBody=0;fillColor=#60a917;collapsible=0;dropTarget=0;points=[[0,0.5],[1,0.5]];portConstraint=eastwest;strokeColor=inherit;top=0;left=0;right=0;bottom=0;swimlaneFillColor=none;fontColor=#ffffff;" vertex="1" parent="NyDk6Hg3P52oke4Y1pbq-133">
          <mxGeometry y="60" width="580" height="30" as="geometry" />
        </mxCell>
        <mxCell id="NyDk6Hg3P52oke4Y1pbq-138" value="" style="shape=partialRectangle;overflow=hidden;connectable=0;fillColor=light-dark(#60a917, #224103);strokeColor=inherit;top=0;left=0;bottom=0;right=1;swimlaneFillColor=none;fontColor=default;" vertex="1" parent="NyDk6Hg3P52oke4Y1pbq-137">
          <mxGeometry width="30" height="30" as="geometry">
            <mxRectangle width="30" height="30" as="alternateBounds" />
          </mxGeometry>
        </mxCell>
        <mxCell id="NyDk6Hg3P52oke4Y1pbq-139" value="titulo               VARCHAR2(100) NOT NULL" style="shape=partialRectangle;overflow=hidden;connectable=0;fillColor=light-dark(#60a917, #224103);align=left;strokeColor=inherit;top=0;left=1;bottom=0;right=0;spacingLeft=6;swimlaneFillColor=none;fontColor=default;" vertex="1" parent="NyDk6Hg3P52oke4Y1pbq-137">
          <mxGeometry x="30" width="550" height="30" as="geometry">
            <mxRectangle width="550" height="30" as="alternateBounds" />
          </mxGeometry>
        </mxCell>
        <mxCell id="NyDk6Hg3P52oke4Y1pbq-140" value="" style="shape=tableRow;horizontal=0;startSize=0;swimlaneHead=0;swimlaneBody=0;fillColor=#60a917;collapsible=0;dropTarget=0;points=[[0,0.5],[1,0.5]];portConstraint=eastwest;strokeColor=inherit;top=0;left=0;right=0;bottom=0;swimlaneFillColor=none;fontColor=#ffffff;" vertex="1" parent="NyDk6Hg3P52oke4Y1pbq-133">
          <mxGeometry y="90" width="580" height="30" as="geometry" />
        </mxCell>
        <mxCell id="NyDk6Hg3P52oke4Y1pbq-141" value="" style="shape=partialRectangle;overflow=hidden;connectable=0;fillColor=light-dark(#60a917, #224103);strokeColor=inherit;top=0;left=0;bottom=0;right=1;swimlaneFillColor=none;fontColor=default;" vertex="1" parent="NyDk6Hg3P52oke4Y1pbq-140">
          <mxGeometry width="30" height="30" as="geometry">
            <mxRectangle width="30" height="30" as="alternateBounds" />
          </mxGeometry>
        </mxCell>
        <mxCell id="NyDk6Hg3P52oke4Y1pbq-142" value="descricao            VARCHAR2(500)" style="shape=partialRectangle;overflow=hidden;connectable=0;fillColor=light-dark(#60a917, #224103);align=left;strokeColor=inherit;top=0;left=1;bottom=0;right=0;spacingLeft=6;swimlaneFillColor=none;fontColor=default;" vertex="1" parent="NyDk6Hg3P52oke4Y1pbq-140">
          <mxGeometry x="30" width="550" height="30" as="geometry">
            <mxRectangle width="550" height="30" as="alternateBounds" />
          </mxGeometry>
        </mxCell>
        <mxCell id="NyDk6Hg3P52oke4Y1pbq-143" value="" style="shape=tableRow;horizontal=0;startSize=0;swimlaneHead=0;swimlaneBody=0;fillColor=#60a917;collapsible=0;dropTarget=0;points=[[0,0.5],[1,0.5]];portConstraint=eastwest;strokeColor=inherit;top=0;left=0;right=0;bottom=0;swimlaneFillColor=none;fontColor=#ffffff;" vertex="1" parent="NyDk6Hg3P52oke4Y1pbq-133">
          <mxGeometry y="120" width="580" height="30" as="geometry" />
        </mxCell>
        <mxCell id="NyDk6Hg3P52oke4Y1pbq-144" value="" style="shape=partialRectangle;overflow=hidden;connectable=0;fillColor=light-dark(#60a917, #224103);strokeColor=inherit;top=0;left=0;bottom=0;right=1;swimlaneFillColor=none;fontColor=default;" vertex="1" parent="NyDk6Hg3P52oke4Y1pbq-143">
          <mxGeometry width="30" height="30" as="geometry">
            <mxRectangle width="30" height="30" as="alternateBounds" />
          </mxGeometry>
        </mxCell>
        <mxCell id="NyDk6Hg3P52oke4Y1pbq-145" value="nivel_urgencia       VARCHAR2(20) CHECK (nivel_urgencia IN (&#39;BAIXO&#39;, &#39;MEDIO&#39;, &#39;ALTO&#39;, &#39;CRITICO&#39;))" style="shape=partialRectangle;overflow=hidden;connectable=0;fillColor=light-dark(#60a917, #224103);align=left;strokeColor=inherit;top=0;left=1;bottom=0;right=0;spacingLeft=6;swimlaneFillColor=none;fontColor=default;" vertex="1" parent="NyDk6Hg3P52oke4Y1pbq-143">
          <mxGeometry x="30" width="550" height="30" as="geometry">
            <mxRectangle width="550" height="30" as="alternateBounds" />
          </mxGeometry>
        </mxCell>
        <mxCell id="NyDk6Hg3P52oke4Y1pbq-146" value="" style="shape=tableRow;horizontal=0;startSize=0;swimlaneHead=0;swimlaneBody=0;fillColor=#60a917;collapsible=0;dropTarget=0;points=[[0,0.5],[1,0.5]];portConstraint=eastwest;strokeColor=inherit;top=0;left=0;right=0;bottom=0;swimlaneFillColor=none;fontColor=#ffffff;" vertex="1" parent="NyDk6Hg3P52oke4Y1pbq-133">
          <mxGeometry y="150" width="580" height="30" as="geometry" />
        </mxCell>
        <mxCell id="NyDk6Hg3P52oke4Y1pbq-147" value="FK" style="shape=partialRectangle;overflow=hidden;connectable=0;fillColor=light-dark(#60a917, #224103);strokeColor=inherit;top=1;left=0;bottom=1;right=1;fontStyle=1;swimlaneFillColor=none;fontColor=default;" vertex="1" parent="NyDk6Hg3P52oke4Y1pbq-146">
          <mxGeometry width="30" height="30" as="geometry">
            <mxRectangle width="30" height="30" as="alternateBounds" />
          </mxGeometry>
        </mxCell>
        <mxCell id="NyDk6Hg3P52oke4Y1pbq-148" value="id_localizacao       NUMBER REFERENCES localizacao(id_localizacao)" style="shape=partialRectangle;overflow=hidden;connectable=0;fillColor=light-dark(#60a917, #224103);align=left;strokeColor=inherit;top=1;left=1;bottom=1;right=0;spacingLeft=6;fontStyle=1;swimlaneFillColor=none;fontColor=default;" vertex="1" parent="NyDk6Hg3P52oke4Y1pbq-146">
          <mxGeometry x="30" width="550" height="30" as="geometry">
            <mxRectangle width="550" height="30" as="alternateBounds" />
          </mxGeometry>
        </mxCell>
        <mxCell id="NyDk6Hg3P52oke4Y1pbq-149" value="" style="shape=tableRow;horizontal=0;startSize=0;swimlaneHead=0;swimlaneBody=0;fillColor=#60a917;collapsible=0;dropTarget=0;points=[[0,0.5],[1,0.5]];portConstraint=eastwest;strokeColor=inherit;top=0;left=0;right=0;bottom=0;swimlaneFillColor=none;fontColor=#ffffff;" vertex="1" parent="NyDk6Hg3P52oke4Y1pbq-133">
          <mxGeometry y="180" width="580" height="30" as="geometry" />
        </mxCell>
        <mxCell id="NyDk6Hg3P52oke4Y1pbq-150" value="" style="shape=partialRectangle;overflow=hidden;connectable=0;fillColor=light-dark(#60a917, #224103);strokeColor=inherit;top=0;left=0;bottom=0;right=1;swimlaneFillColor=none;fontColor=default;" vertex="1" parent="NyDk6Hg3P52oke4Y1pbq-149">
          <mxGeometry width="30" height="30" as="geometry">
            <mxRectangle width="30" height="30" as="alternateBounds" />
          </mxGeometry>
        </mxCell>
        <mxCell id="NyDk6Hg3P52oke4Y1pbq-151" value="data_emissao         DATE DEFAULT SYSDATE" style="shape=partialRectangle;overflow=hidden;connectable=0;fillColor=light-dark(#60a917, #224103);align=left;strokeColor=inherit;top=0;left=1;bottom=0;right=0;spacingLeft=6;swimlaneFillColor=none;fontColor=default;" vertex="1" parent="NyDk6Hg3P52oke4Y1pbq-149">
          <mxGeometry x="30" width="550" height="30" as="geometry">
            <mxRectangle width="550" height="30" as="alternateBounds" />
          </mxGeometry>
        </mxCell>
        <mxCell id="NyDk6Hg3P52oke4Y1pbq-152" value="" style="shape=tableRow;horizontal=0;startSize=0;swimlaneHead=0;swimlaneBody=0;fillColor=#60a917;collapsible=0;dropTarget=0;points=[[0,0.5],[1,0.5]];portConstraint=eastwest;strokeColor=inherit;top=0;left=0;right=0;bottom=0;swimlaneFillColor=none;fontColor=#ffffff;" vertex="1" parent="NyDk6Hg3P52oke4Y1pbq-133">
          <mxGeometry y="210" width="580" height="30" as="geometry" />
        </mxCell>
        <mxCell id="NyDk6Hg3P52oke4Y1pbq-153" value="" style="shape=partialRectangle;overflow=hidden;connectable=0;fillColor=light-dark(#60a917, #224103);strokeColor=inherit;top=0;left=0;bottom=0;right=1;swimlaneFillColor=none;fontColor=default;" vertex="1" parent="NyDk6Hg3P52oke4Y1pbq-152">
          <mxGeometry width="30" height="30" as="geometry">
            <mxRectangle width="30" height="30" as="alternateBounds" />
          </mxGeometry>
        </mxCell>
        <mxCell id="NyDk6Hg3P52oke4Y1pbq-154" value="status               VARCHAR2(20) DEFAULT &#39;ATIVO&#39;" style="shape=partialRectangle;overflow=hidden;connectable=0;fillColor=light-dark(#60a917, #224103);align=left;strokeColor=inherit;top=0;left=1;bottom=0;right=0;spacingLeft=6;swimlaneFillColor=none;fontColor=default;" vertex="1" parent="NyDk6Hg3P52oke4Y1pbq-152">
          <mxGeometry x="30" width="550" height="30" as="geometry">
            <mxRectangle width="550" height="30" as="alternateBounds" />
          </mxGeometry>
        </mxCell>
        <mxCell id="NyDk6Hg3P52oke4Y1pbq-155" value="usuario" style="shape=table;startSize=30;container=1;collapsible=1;childLayout=tableLayout;fixedRows=1;rowLines=0;fontStyle=1;align=center;resizeLast=1;fillColor=#60a917;strokeColor=default;fontColor=default;swimlaneFillColor=none;" vertex="1" parent="1">
          <mxGeometry x="1450" y="420" width="720" height="240" as="geometry" />
        </mxCell>
        <mxCell id="NyDk6Hg3P52oke4Y1pbq-156" value="" style="shape=tableRow;horizontal=0;startSize=0;swimlaneHead=0;swimlaneBody=0;fillColor=#60a917;collapsible=0;dropTarget=0;points=[[0,0.5],[1,0.5]];portConstraint=eastwest;strokeColor=inherit;top=0;left=0;right=0;bottom=1;swimlaneFillColor=none;fontColor=#ffffff;" vertex="1" parent="NyDk6Hg3P52oke4Y1pbq-155">
          <mxGeometry y="30" width="720" height="30" as="geometry" />
        </mxCell>
        <mxCell id="NyDk6Hg3P52oke4Y1pbq-157" value="PK" style="shape=partialRectangle;overflow=hidden;connectable=0;fillColor=light-dark(#60a917, #224103);strokeColor=inherit;top=1;left=0;bottom=1;right=1;fontStyle=1;swimlaneFillColor=none;fontColor=default;" vertex="1" parent="NyDk6Hg3P52oke4Y1pbq-156">
          <mxGeometry width="30" height="30" as="geometry">
            <mxRectangle width="30" height="30" as="alternateBounds" />
          </mxGeometry>
        </mxCell>
        <mxCell id="NyDk6Hg3P52oke4Y1pbq-158" value="id_usuario           NUMBER GENERATED BY DEFAULT AS IDENTITY " style="shape=partialRectangle;overflow=hidden;connectable=0;fillColor=light-dark(#60a917, #224103);align=left;strokeColor=inherit;top=1;left=1;bottom=1;right=0;spacingLeft=6;fontStyle=5;swimlaneFillColor=none;fontColor=default;" vertex="1" parent="NyDk6Hg3P52oke4Y1pbq-156">
          <mxGeometry x="30" width="690" height="30" as="geometry">
            <mxRectangle width="690" height="30" as="alternateBounds" />
          </mxGeometry>
        </mxCell>
        <mxCell id="NyDk6Hg3P52oke4Y1pbq-159" value="" style="shape=tableRow;horizontal=0;startSize=0;swimlaneHead=0;swimlaneBody=0;fillColor=#60a917;collapsible=0;dropTarget=0;points=[[0,0.5],[1,0.5]];portConstraint=eastwest;strokeColor=inherit;top=0;left=0;right=0;bottom=0;swimlaneFillColor=none;fontColor=#ffffff;" vertex="1" parent="NyDk6Hg3P52oke4Y1pbq-155">
          <mxGeometry y="60" width="720" height="30" as="geometry" />
        </mxCell>
        <mxCell id="NyDk6Hg3P52oke4Y1pbq-160" value="" style="shape=partialRectangle;overflow=hidden;connectable=0;fillColor=light-dark(#60a917, #224103);strokeColor=inherit;top=0;left=0;bottom=0;right=1;swimlaneFillColor=none;fontColor=default;" vertex="1" parent="NyDk6Hg3P52oke4Y1pbq-159">
          <mxGeometry width="30" height="30" as="geometry">
            <mxRectangle width="30" height="30" as="alternateBounds" />
          </mxGeometry>
        </mxCell>
        <mxCell id="NyDk6Hg3P52oke4Y1pbq-161" value="nome                 VARCHAR2(100) NOT NULL" style="shape=partialRectangle;overflow=hidden;connectable=0;fillColor=light-dark(#60a917, #224103);align=left;strokeColor=inherit;top=0;left=1;bottom=0;right=0;spacingLeft=6;swimlaneFillColor=none;fontColor=default;" vertex="1" parent="NyDk6Hg3P52oke4Y1pbq-159">
          <mxGeometry x="30" width="690" height="30" as="geometry">
            <mxRectangle width="690" height="30" as="alternateBounds" />
          </mxGeometry>
        </mxCell>
        <mxCell id="NyDk6Hg3P52oke4Y1pbq-162" value="" style="shape=tableRow;horizontal=0;startSize=0;swimlaneHead=0;swimlaneBody=0;fillColor=#60a917;collapsible=0;dropTarget=0;points=[[0,0.5],[1,0.5]];portConstraint=eastwest;strokeColor=inherit;top=0;left=0;right=0;bottom=0;swimlaneFillColor=none;fontColor=#ffffff;" vertex="1" parent="NyDk6Hg3P52oke4Y1pbq-155">
          <mxGeometry y="90" width="720" height="30" as="geometry" />
        </mxCell>
        <mxCell id="NyDk6Hg3P52oke4Y1pbq-163" value="" style="shape=partialRectangle;overflow=hidden;connectable=0;fillColor=light-dark(#60a917, #224103);strokeColor=inherit;top=0;left=0;bottom=0;right=1;swimlaneFillColor=none;fontColor=default;" vertex="1" parent="NyDk6Hg3P52oke4Y1pbq-162">
          <mxGeometry width="30" height="30" as="geometry">
            <mxRectangle width="30" height="30" as="alternateBounds" />
          </mxGeometry>
        </mxCell>
        <mxCell id="NyDk6Hg3P52oke4Y1pbq-164" value="email                VARCHAR2(100) UNIQUE NOT NULL" style="shape=partialRectangle;overflow=hidden;connectable=0;fillColor=light-dark(#60a917, #224103);align=left;strokeColor=inherit;top=0;left=1;bottom=0;right=0;spacingLeft=6;swimlaneFillColor=none;fontColor=default;" vertex="1" parent="NyDk6Hg3P52oke4Y1pbq-162">
          <mxGeometry x="30" width="690" height="30" as="geometry">
            <mxRectangle width="690" height="30" as="alternateBounds" />
          </mxGeometry>
        </mxCell>
        <mxCell id="NyDk6Hg3P52oke4Y1pbq-165" value="" style="shape=tableRow;horizontal=0;startSize=0;swimlaneHead=0;swimlaneBody=0;fillColor=#60a917;collapsible=0;dropTarget=0;points=[[0,0.5],[1,0.5]];portConstraint=eastwest;strokeColor=inherit;top=0;left=0;right=0;bottom=0;swimlaneFillColor=none;fontColor=#ffffff;" vertex="1" parent="NyDk6Hg3P52oke4Y1pbq-155">
          <mxGeometry y="120" width="720" height="30" as="geometry" />
        </mxCell>
        <mxCell id="NyDk6Hg3P52oke4Y1pbq-166" value="" style="shape=partialRectangle;overflow=hidden;connectable=0;fillColor=light-dark(#60a917, #224103);strokeColor=inherit;top=0;left=0;bottom=0;right=1;swimlaneFillColor=none;fontColor=default;" vertex="1" parent="NyDk6Hg3P52oke4Y1pbq-165">
          <mxGeometry width="30" height="30" as="geometry">
            <mxRectangle width="30" height="30" as="alternateBounds" />
          </mxGeometry>
        </mxCell>
        <mxCell id="NyDk6Hg3P52oke4Y1pbq-167" value="senha_hash           VARCHAR2(255) NOT NULL" style="shape=partialRectangle;overflow=hidden;connectable=0;fillColor=light-dark(#60a917, #224103);align=left;strokeColor=inherit;top=0;left=1;bottom=0;right=0;spacingLeft=6;swimlaneFillColor=none;fontColor=default;" vertex="1" parent="NyDk6Hg3P52oke4Y1pbq-165">
          <mxGeometry x="30" width="690" height="30" as="geometry">
            <mxRectangle width="690" height="30" as="alternateBounds" />
          </mxGeometry>
        </mxCell>
        <mxCell id="NyDk6Hg3P52oke4Y1pbq-168" value="" style="shape=tableRow;horizontal=0;startSize=0;swimlaneHead=0;swimlaneBody=0;fillColor=#60a917;collapsible=0;dropTarget=0;points=[[0,0.5],[1,0.5]];portConstraint=eastwest;strokeColor=inherit;top=0;left=0;right=0;bottom=0;swimlaneFillColor=none;fontColor=#ffffff;" vertex="1" parent="NyDk6Hg3P52oke4Y1pbq-155">
          <mxGeometry y="150" width="720" height="30" as="geometry" />
        </mxCell>
        <mxCell id="NyDk6Hg3P52oke4Y1pbq-169" value="" style="shape=partialRectangle;overflow=hidden;connectable=0;fillColor=light-dark(#60a917, #224103);strokeColor=inherit;top=0;left=0;bottom=0;right=1;swimlaneFillColor=none;fontColor=default;" vertex="1" parent="NyDk6Hg3P52oke4Y1pbq-168">
          <mxGeometry width="30" height="30" as="geometry">
            <mxRectangle width="30" height="30" as="alternateBounds" />
          </mxGeometry>
        </mxCell>
        <mxCell id="NyDk6Hg3P52oke4Y1pbq-170" value="tipo_usuario         VARCHAR2(20) CHECK (tipo_usuario IN (&#39;ADMIN&#39;, &#39;VOLUNTARIO&#39;, &#39;COORDENADOR&#39;, &#39;USUARIO&#39;)) NOT NULL" style="shape=partialRectangle;overflow=hidden;connectable=0;fillColor=light-dark(#60a917, #224103);align=left;strokeColor=inherit;top=0;left=1;bottom=0;right=0;spacingLeft=6;swimlaneFillColor=none;fontColor=default;" vertex="1" parent="NyDk6Hg3P52oke4Y1pbq-168">
          <mxGeometry x="30" width="690" height="30" as="geometry">
            <mxRectangle width="690" height="30" as="alternateBounds" />
          </mxGeometry>
        </mxCell>
        <mxCell id="NyDk6Hg3P52oke4Y1pbq-171" value="" style="shape=tableRow;horizontal=0;startSize=0;swimlaneHead=0;swimlaneBody=0;fillColor=#60a917;collapsible=0;dropTarget=0;points=[[0,0.5],[1,0.5]];portConstraint=eastwest;strokeColor=inherit;top=0;left=0;right=0;bottom=0;swimlaneFillColor=none;fontColor=#ffffff;" vertex="1" parent="NyDk6Hg3P52oke4Y1pbq-155">
          <mxGeometry y="180" width="720" height="30" as="geometry" />
        </mxCell>
        <mxCell id="NyDk6Hg3P52oke4Y1pbq-172" value="" style="shape=partialRectangle;overflow=hidden;connectable=0;fillColor=light-dark(#60a917, #224103);strokeColor=inherit;top=0;left=0;bottom=0;right=1;swimlaneFillColor=none;fontColor=default;" vertex="1" parent="NyDk6Hg3P52oke4Y1pbq-171">
          <mxGeometry width="30" height="30" as="geometry">
            <mxRectangle width="30" height="30" as="alternateBounds" />
          </mxGeometry>
        </mxCell>
        <mxCell id="NyDk6Hg3P52oke4Y1pbq-173" value="telefone             VARCHAR2(20)" style="shape=partialRectangle;overflow=hidden;connectable=0;fillColor=light-dark(#60a917, #224103);align=left;strokeColor=inherit;top=0;left=1;bottom=0;right=0;spacingLeft=6;swimlaneFillColor=none;fontColor=default;" vertex="1" parent="NyDk6Hg3P52oke4Y1pbq-171">
          <mxGeometry x="30" width="690" height="30" as="geometry">
            <mxRectangle width="690" height="30" as="alternateBounds" />
          </mxGeometry>
        </mxCell>
        <mxCell id="NyDk6Hg3P52oke4Y1pbq-174" value="" style="shape=tableRow;horizontal=0;startSize=0;swimlaneHead=0;swimlaneBody=0;fillColor=#60a917;collapsible=0;dropTarget=0;points=[[0,0.5],[1,0.5]];portConstraint=eastwest;strokeColor=inherit;top=0;left=0;right=0;bottom=0;swimlaneFillColor=none;fontColor=#ffffff;" vertex="1" parent="NyDk6Hg3P52oke4Y1pbq-155">
          <mxGeometry y="210" width="720" height="30" as="geometry" />
        </mxCell>
        <mxCell id="NyDk6Hg3P52oke4Y1pbq-175" value="" style="shape=partialRectangle;overflow=hidden;connectable=0;fillColor=light-dark(#60a917, #224103);strokeColor=inherit;top=0;left=0;bottom=0;right=1;swimlaneFillColor=none;fontColor=default;" vertex="1" parent="NyDk6Hg3P52oke4Y1pbq-174">
          <mxGeometry width="30" height="30" as="geometry">
            <mxRectangle width="30" height="30" as="alternateBounds" />
          </mxGeometry>
        </mxCell>
        <mxCell id="NyDk6Hg3P52oke4Y1pbq-176" value="data_cadastro        DATE DEFAULT SYSDATE" style="shape=partialRectangle;overflow=hidden;connectable=0;fillColor=light-dark(#60a917, #224103);align=left;strokeColor=inherit;top=0;left=1;bottom=0;right=0;spacingLeft=6;swimlaneFillColor=none;fontColor=default;" vertex="1" parent="NyDk6Hg3P52oke4Y1pbq-174">
          <mxGeometry x="30" width="690" height="30" as="geometry">
            <mxRectangle width="690" height="30" as="alternateBounds" />
          </mxGeometry>
        </mxCell>
        <mxCell id="NyDk6Hg3P52oke4Y1pbq-177" value="voluntario_alerta" style="shape=table;startSize=30;container=1;collapsible=1;childLayout=tableLayout;fixedRows=1;rowLines=0;fontStyle=1;align=center;resizeLast=1;fillColor=#60a917;strokeColor=default;fontColor=default;swimlaneFillColor=none;" vertex="1" parent="1">
          <mxGeometry x="2420" y="390" width="900" height="180" as="geometry" />
        </mxCell>
        <mxCell id="NyDk6Hg3P52oke4Y1pbq-178" value="" style="shape=tableRow;horizontal=0;startSize=0;swimlaneHead=0;swimlaneBody=0;fillColor=#60a917;collapsible=0;dropTarget=0;points=[[0,0.5],[1,0.5]];portConstraint=eastwest;strokeColor=inherit;top=0;left=0;right=0;bottom=1;swimlaneFillColor=none;fontColor=#ffffff;" vertex="1" parent="NyDk6Hg3P52oke4Y1pbq-177">
          <mxGeometry y="30" width="900" height="30" as="geometry" />
        </mxCell>
        <mxCell id="NyDk6Hg3P52oke4Y1pbq-179" value="PK" style="shape=partialRectangle;overflow=hidden;connectable=0;fillColor=light-dark(#60a917, #224103);strokeColor=inherit;top=1;left=0;bottom=1;right=1;fontStyle=1;swimlaneFillColor=none;fontColor=default;" vertex="1" parent="NyDk6Hg3P52oke4Y1pbq-178">
          <mxGeometry width="30" height="30" as="geometry">
            <mxRectangle width="30" height="30" as="alternateBounds" />
          </mxGeometry>
        </mxCell>
        <mxCell id="NyDk6Hg3P52oke4Y1pbq-180" value="id_voluntario_alerta NUMBER GENERATED BY DEFAULT AS IDENTITY " style="shape=partialRectangle;overflow=hidden;connectable=0;fillColor=light-dark(#60a917, #224103);align=left;strokeColor=inherit;top=1;left=1;bottom=1;right=0;spacingLeft=6;fontStyle=5;swimlaneFillColor=none;fontColor=default;" vertex="1" parent="NyDk6Hg3P52oke4Y1pbq-178">
          <mxGeometry x="30" width="870" height="30" as="geometry">
            <mxRectangle width="870" height="30" as="alternateBounds" />
          </mxGeometry>
        </mxCell>
        <mxCell id="NyDk6Hg3P52oke4Y1pbq-181" value="" style="shape=tableRow;horizontal=0;startSize=0;swimlaneHead=0;swimlaneBody=0;fillColor=#60a917;collapsible=0;dropTarget=0;points=[[0,0.5],[1,0.5]];portConstraint=eastwest;strokeColor=inherit;top=0;left=0;right=0;bottom=0;swimlaneFillColor=none;fontColor=#ffffff;" vertex="1" parent="NyDk6Hg3P52oke4Y1pbq-177">
          <mxGeometry y="60" width="900" height="30" as="geometry" />
        </mxCell>
        <mxCell id="NyDk6Hg3P52oke4Y1pbq-182" value="FK" style="shape=partialRectangle;overflow=hidden;connectable=0;fillColor=light-dark(#60a917, #224103);strokeColor=inherit;top=0;left=0;bottom=1;right=1;fontStyle=1;swimlaneFillColor=none;fontColor=default;" vertex="1" parent="NyDk6Hg3P52oke4Y1pbq-181">
          <mxGeometry width="30" height="30" as="geometry">
            <mxRectangle width="30" height="30" as="alternateBounds" />
          </mxGeometry>
        </mxCell>
        <mxCell id="NyDk6Hg3P52oke4Y1pbq-183" value="id_usuario           NUMBER NOT NULL REFERENCES usuario(id_usuario)" style="shape=partialRectangle;overflow=hidden;connectable=0;fillColor=light-dark(#60a917, #224103);align=left;strokeColor=inherit;top=0;left=1;bottom=1;right=0;spacingLeft=6;fontStyle=1;swimlaneFillColor=none;fontColor=default;" vertex="1" parent="NyDk6Hg3P52oke4Y1pbq-181">
          <mxGeometry x="30" width="870" height="30" as="geometry">
            <mxRectangle width="870" height="30" as="alternateBounds" />
          </mxGeometry>
        </mxCell>
        <mxCell id="NyDk6Hg3P52oke4Y1pbq-184" value="" style="shape=tableRow;horizontal=0;startSize=0;swimlaneHead=0;swimlaneBody=0;fillColor=#60a917;collapsible=0;dropTarget=0;points=[[0,0.5],[1,0.5]];portConstraint=eastwest;strokeColor=inherit;top=0;left=0;right=0;bottom=0;swimlaneFillColor=none;fontColor=#ffffff;" vertex="1" parent="NyDk6Hg3P52oke4Y1pbq-177">
          <mxGeometry y="90" width="900" height="30" as="geometry" />
        </mxCell>
        <mxCell id="NyDk6Hg3P52oke4Y1pbq-185" value="FK" style="shape=partialRectangle;overflow=hidden;connectable=0;fillColor=light-dark(#60a917, #224103);strokeColor=inherit;top=0;left=0;bottom=1;right=1;fontStyle=1;swimlaneFillColor=none;fontColor=default;" vertex="1" parent="NyDk6Hg3P52oke4Y1pbq-184">
          <mxGeometry width="30" height="30" as="geometry">
            <mxRectangle width="30" height="30" as="alternateBounds" />
          </mxGeometry>
        </mxCell>
        <mxCell id="NyDk6Hg3P52oke4Y1pbq-186" value="id_alerta            NUMBER NOT NULL REFERENCES alerta(id_alerta)" style="shape=partialRectangle;overflow=hidden;connectable=0;fillColor=light-dark(#60a917, #224103);align=left;strokeColor=inherit;top=0;left=1;bottom=1;right=0;spacingLeft=6;fontStyle=1;swimlaneFillColor=none;fontColor=default;" vertex="1" parent="NyDk6Hg3P52oke4Y1pbq-184">
          <mxGeometry x="30" width="870" height="30" as="geometry">
            <mxRectangle width="870" height="30" as="alternateBounds" />
          </mxGeometry>
        </mxCell>
        <mxCell id="NyDk6Hg3P52oke4Y1pbq-187" value="" style="shape=tableRow;horizontal=0;startSize=0;swimlaneHead=0;swimlaneBody=0;fillColor=#60a917;collapsible=0;dropTarget=0;points=[[0,0.5],[1,0.5]];portConstraint=eastwest;strokeColor=inherit;top=0;left=0;right=0;bottom=0;swimlaneFillColor=none;fontColor=#ffffff;" vertex="1" parent="NyDk6Hg3P52oke4Y1pbq-177">
          <mxGeometry y="120" width="900" height="30" as="geometry" />
        </mxCell>
        <mxCell id="NyDk6Hg3P52oke4Y1pbq-188" value="" style="shape=partialRectangle;overflow=hidden;connectable=0;fillColor=light-dark(#60a917, #224103);strokeColor=inherit;top=0;left=0;bottom=0;right=1;swimlaneFillColor=none;fontColor=default;" vertex="1" parent="NyDk6Hg3P52oke4Y1pbq-187">
          <mxGeometry width="30" height="30" as="geometry">
            <mxRectangle width="30" height="30" as="alternateBounds" />
          </mxGeometry>
        </mxCell>
        <mxCell id="NyDk6Hg3P52oke4Y1pbq-189" value="status_participacao  VARCHAR2(20) DEFAULT &#39;AGUARDANDO&#39; CHECK ( status_participacao IN (&#39;AGUARDANDO&#39;, &#39;EM_ANDAMENTO&#39;, &#39;CONCLUIDO&#39;))" style="shape=partialRectangle;overflow=hidden;connectable=0;fillColor=light-dark(#60a917, #224103);align=left;strokeColor=inherit;top=0;left=1;bottom=0;right=0;spacingLeft=6;swimlaneFillColor=none;fontColor=default;" vertex="1" parent="NyDk6Hg3P52oke4Y1pbq-187">
          <mxGeometry x="30" width="870" height="30" as="geometry">
            <mxRectangle width="870" height="30" as="alternateBounds" />
          </mxGeometry>
        </mxCell>
        <mxCell id="NyDk6Hg3P52oke4Y1pbq-190" value="" style="shape=tableRow;horizontal=0;startSize=0;swimlaneHead=0;swimlaneBody=0;fillColor=#60a917;collapsible=0;dropTarget=0;points=[[0,0.5],[1,0.5]];portConstraint=eastwest;strokeColor=inherit;top=0;left=0;right=0;bottom=0;swimlaneFillColor=none;fontColor=#ffffff;" vertex="1" parent="NyDk6Hg3P52oke4Y1pbq-177">
          <mxGeometry y="150" width="900" height="30" as="geometry" />
        </mxCell>
        <mxCell id="NyDk6Hg3P52oke4Y1pbq-191" value="" style="shape=partialRectangle;overflow=hidden;connectable=0;fillColor=light-dark(#60a917, #224103);strokeColor=inherit;top=0;left=0;bottom=0;right=1;swimlaneFillColor=none;fontColor=default;" vertex="1" parent="NyDk6Hg3P52oke4Y1pbq-190">
          <mxGeometry width="30" height="30" as="geometry">
            <mxRectangle width="30" height="30" as="alternateBounds" />
          </mxGeometry>
        </mxCell>
        <mxCell id="NyDk6Hg3P52oke4Y1pbq-192" value="data_participacao    DATE DEFAULT SYSDATE" style="shape=partialRectangle;overflow=hidden;connectable=0;fillColor=light-dark(#60a917, #224103);align=left;strokeColor=inherit;top=0;left=1;bottom=0;right=0;spacingLeft=6;swimlaneFillColor=none;fontColor=default;" vertex="1" parent="NyDk6Hg3P52oke4Y1pbq-190">
          <mxGeometry x="30" width="870" height="30" as="geometry">
            <mxRectangle width="870" height="30" as="alternateBounds" />
          </mxGeometry>
        </mxCell>
        <mxCell id="NyDk6Hg3P52oke4Y1pbq-193" style="edgeStyle=orthogonalEdgeStyle;rounded=0;orthogonalLoop=1;jettySize=auto;html=1;entryX=0;entryY=0.5;entryDx=0;entryDy=0;fontFamily=Helvetica;fontSize=12;fontColor=default;fontStyle=1;startArrow=ERmany;startFill=0;" edge="1" parent="1" source="NyDk6Hg3P52oke4Y1pbq-87" target="NyDk6Hg3P52oke4Y1pbq-156">
          <mxGeometry relative="1" as="geometry">
            <Array as="points">
              <mxPoint x="1220" y="75" />
              <mxPoint x="1220" y="465" />
            </Array>
          </mxGeometry>
        </mxCell>
        <mxCell id="NyDk6Hg3P52oke4Y1pbq-194" value="N" style="edgeLabel;html=1;align=center;verticalAlign=middle;resizable=0;points=[];strokeColor=default;fontFamily=Helvetica;fontSize=12;fontColor=default;fontStyle=1;fillColor=default;" vertex="1" connectable="0" parent="NyDk6Hg3P52oke4Y1pbq-193">
          <mxGeometry x="-0.951" y="2" relative="1" as="geometry">
            <mxPoint as="offset" />
          </mxGeometry>
        </mxCell>
        <mxCell id="NyDk6Hg3P52oke4Y1pbq-195" value="1" style="edgeLabel;html=1;align=center;verticalAlign=middle;resizable=0;points=[];strokeColor=default;fontFamily=Helvetica;fontSize=12;fontColor=default;fontStyle=1;fillColor=default;" vertex="1" connectable="0" parent="NyDk6Hg3P52oke4Y1pbq-193">
          <mxGeometry x="0.8346" relative="1" as="geometry">
            <mxPoint as="offset" />
          </mxGeometry>
        </mxCell>
        <mxCell id="NyDk6Hg3P52oke4Y1pbq-196" value="doacao → usuario (N:1)" style="edgeLabel;html=1;align=center;verticalAlign=middle;resizable=0;points=[];strokeColor=default;fontFamily=Helvetica;fontSize=12;fontColor=default;fontStyle=1;fillColor=default;" vertex="1" connectable="0" parent="NyDk6Hg3P52oke4Y1pbq-193">
          <mxGeometry relative="1" as="geometry">
            <mxPoint as="offset" />
          </mxGeometry>
        </mxCell>
        <mxCell id="NyDk6Hg3P52oke4Y1pbq-197" style="edgeStyle=orthogonalEdgeStyle;rounded=0;orthogonalLoop=1;jettySize=auto;html=1;entryX=0;entryY=0.5;entryDx=0;entryDy=0;fontFamily=Helvetica;fontSize=12;fontColor=default;fontStyle=1;startArrow=ERmany;startFill=0;labelBorderColor=none;metaEdit=1;editable=0;" edge="1" parent="1" source="NyDk6Hg3P52oke4Y1pbq-90" target="NyDk6Hg3P52oke4Y1pbq-55">
          <mxGeometry relative="1" as="geometry" />
        </mxCell>
        <mxCell id="NyDk6Hg3P52oke4Y1pbq-198" value="N" style="edgeLabel;html=1;align=center;verticalAlign=middle;resizable=0;points=[];strokeColor=default;fontFamily=Helvetica;fontSize=12;fontColor=default;fontStyle=1;fillColor=default;" vertex="1" connectable="0" parent="NyDk6Hg3P52oke4Y1pbq-197">
          <mxGeometry x="-0.9145" relative="1" as="geometry">
            <mxPoint as="offset" />
          </mxGeometry>
        </mxCell>
        <mxCell id="NyDk6Hg3P52oke4Y1pbq-199" value="1" style="edgeLabel;html=1;align=center;verticalAlign=middle;resizable=0;points=[];strokeColor=default;fontFamily=Helvetica;fontSize=12;fontColor=default;fontStyle=1;fillColor=default;" vertex="1" connectable="0" parent="NyDk6Hg3P52oke4Y1pbq-197">
          <mxGeometry x="0.9006" y="-3" relative="1" as="geometry">
            <mxPoint as="offset" />
          </mxGeometry>
        </mxCell>
        <mxCell id="NyDk6Hg3P52oke4Y1pbq-200" value="doacao → recurso (N:1)" style="edgeLabel;html=1;align=center;verticalAlign=middle;resizable=0;points=[];strokeColor=default;fontFamily=Helvetica;fontSize=12;fontColor=default;fontStyle=1;fillColor=default;" vertex="1" connectable="0" parent="NyDk6Hg3P52oke4Y1pbq-197">
          <mxGeometry relative="1" as="geometry">
            <mxPoint as="offset" />
          </mxGeometry>
        </mxCell>
        <mxCell id="NyDk6Hg3P52oke4Y1pbq-201" style="edgeStyle=orthogonalEdgeStyle;rounded=0;orthogonalLoop=1;jettySize=auto;html=1;exitX=1;exitY=0.5;exitDx=0;exitDy=0;entryX=0;entryY=0.5;entryDx=0;entryDy=0;fontFamily=Helvetica;fontSize=12;fontColor=default;fontStyle=1;startArrow=ERmany;startFill=0;" edge="1" parent="1" source="NyDk6Hg3P52oke4Y1pbq-93" target="NyDk6Hg3P52oke4Y1pbq-33">
          <mxGeometry relative="1" as="geometry" />
        </mxCell>
        <mxCell id="NyDk6Hg3P52oke4Y1pbq-202" value="N" style="edgeLabel;html=1;align=center;verticalAlign=middle;resizable=0;points=[];strokeColor=default;fontFamily=Helvetica;fontSize=12;fontColor=default;fontStyle=1;fillColor=default;" vertex="1" connectable="0" parent="NyDk6Hg3P52oke4Y1pbq-201">
          <mxGeometry x="-0.9258" y="2" relative="1" as="geometry">
            <mxPoint as="offset" />
          </mxGeometry>
        </mxCell>
        <mxCell id="NyDk6Hg3P52oke4Y1pbq-203" value="1" style="edgeLabel;html=1;align=center;verticalAlign=middle;resizable=0;points=[];strokeColor=default;fontFamily=Helvetica;fontSize=12;fontColor=default;fontStyle=1;fillColor=default;" vertex="1" connectable="0" parent="NyDk6Hg3P52oke4Y1pbq-201">
          <mxGeometry x="0.5122" y="-1" relative="1" as="geometry">
            <mxPoint as="offset" />
          </mxGeometry>
        </mxCell>
        <mxCell id="NyDk6Hg3P52oke4Y1pbq-204" value="doacao → localizacao (N:1)" style="edgeLabel;html=1;align=center;verticalAlign=middle;resizable=0;points=[];strokeColor=default;fontFamily=Helvetica;fontSize=12;fontColor=default;fontStyle=1;fillColor=default;" vertex="1" connectable="0" parent="NyDk6Hg3P52oke4Y1pbq-201">
          <mxGeometry relative="1" as="geometry">
            <mxPoint as="offset" />
          </mxGeometry>
        </mxCell>
        <mxCell id="NyDk6Hg3P52oke4Y1pbq-205" style="edgeStyle=orthogonalEdgeStyle;rounded=0;orthogonalLoop=1;jettySize=auto;html=1;entryX=1;entryY=0.5;entryDx=0;entryDy=0;fontFamily=Helvetica;fontSize=12;fontColor=default;fontStyle=1;startArrow=ERmany;startFill=0;" edge="1" parent="1" source="NyDk6Hg3P52oke4Y1pbq-71" target="NyDk6Hg3P52oke4Y1pbq-55">
          <mxGeometry relative="1" as="geometry" />
        </mxCell>
        <mxCell id="NyDk6Hg3P52oke4Y1pbq-206" value="N" style="edgeLabel;html=1;align=center;verticalAlign=middle;resizable=0;points=[];strokeColor=default;fontFamily=Helvetica;fontSize=12;fontColor=default;fontStyle=1;fillColor=default;" vertex="1" connectable="0" parent="NyDk6Hg3P52oke4Y1pbq-205">
          <mxGeometry x="-0.9" y="-2" relative="1" as="geometry">
            <mxPoint y="4" as="offset" />
          </mxGeometry>
        </mxCell>
        <mxCell id="NyDk6Hg3P52oke4Y1pbq-207" value="1" style="edgeLabel;html=1;align=center;verticalAlign=middle;resizable=0;points=[];strokeColor=default;fontFamily=Helvetica;fontSize=12;fontColor=default;fontStyle=1;fillColor=default;" vertex="1" connectable="0" parent="NyDk6Hg3P52oke4Y1pbq-205">
          <mxGeometry x="0.9" relative="1" as="geometry">
            <mxPoint as="offset" />
          </mxGeometry>
        </mxCell>
        <mxCell id="NyDk6Hg3P52oke4Y1pbq-208" value="recurso_disponivel → recurso (N:1)" style="edgeLabel;html=1;align=center;verticalAlign=middle;resizable=0;points=[];strokeColor=default;fontFamily=Helvetica;fontSize=12;fontColor=default;fontStyle=1;fillColor=default;" vertex="1" connectable="0" parent="NyDk6Hg3P52oke4Y1pbq-205">
          <mxGeometry relative="1" as="geometry">
            <mxPoint as="offset" />
          </mxGeometry>
        </mxCell>
        <mxCell id="NyDk6Hg3P52oke4Y1pbq-209" style="edgeStyle=orthogonalEdgeStyle;rounded=0;orthogonalLoop=1;jettySize=auto;html=1;entryX=0;entryY=0.5;entryDx=0;entryDy=0;fontFamily=Helvetica;fontSize=12;fontColor=default;fontStyle=1;startArrow=ERmany;startFill=0;" edge="1" parent="1" source="NyDk6Hg3P52oke4Y1pbq-74" target="NyDk6Hg3P52oke4Y1pbq-33">
          <mxGeometry relative="1" as="geometry">
            <Array as="points">
              <mxPoint x="1360" y="525" />
              <mxPoint x="1360" y="180" />
              <mxPoint x="1490" y="180" />
              <mxPoint x="1490" y="135" />
            </Array>
          </mxGeometry>
        </mxCell>
        <mxCell id="NyDk6Hg3P52oke4Y1pbq-210" value="1" style="edgeLabel;html=1;align=center;verticalAlign=middle;resizable=0;points=[];strokeColor=default;fontFamily=Helvetica;fontSize=12;fontColor=default;fontStyle=1;fillColor=default;" vertex="1" connectable="0" parent="NyDk6Hg3P52oke4Y1pbq-209">
          <mxGeometry x="0.6014" y="1" relative="1" as="geometry">
            <mxPoint as="offset" />
          </mxGeometry>
        </mxCell>
        <mxCell id="NyDk6Hg3P52oke4Y1pbq-211" value="N" style="edgeLabel;html=1;align=center;verticalAlign=middle;resizable=0;points=[];strokeColor=default;fontFamily=Helvetica;fontSize=12;fontColor=default;fontStyle=1;fillColor=default;" vertex="1" connectable="0" parent="NyDk6Hg3P52oke4Y1pbq-209">
          <mxGeometry x="-0.9256" y="-1" relative="1" as="geometry">
            <mxPoint as="offset" />
          </mxGeometry>
        </mxCell>
        <mxCell id="NyDk6Hg3P52oke4Y1pbq-212" value="recurso_disponivel → localizacao (N:1)" style="edgeLabel;html=1;align=center;verticalAlign=middle;resizable=0;points=[];strokeColor=default;fontFamily=Helvetica;fontSize=12;fontColor=default;fontStyle=1;fillColor=default;" vertex="1" connectable="0" parent="NyDk6Hg3P52oke4Y1pbq-209">
          <mxGeometry relative="1" as="geometry">
            <mxPoint as="offset" />
          </mxGeometry>
        </mxCell>
        <mxCell id="NyDk6Hg3P52oke4Y1pbq-213" style="edgeStyle=orthogonalEdgeStyle;rounded=0;orthogonalLoop=1;jettySize=auto;html=1;entryX=1;entryY=0.5;entryDx=0;entryDy=0;fontFamily=Helvetica;fontSize=12;fontColor=default;fontStyle=1;startArrow=ERmany;startFill=0;" edge="1" parent="1" source="NyDk6Hg3P52oke4Y1pbq-127" target="NyDk6Hg3P52oke4Y1pbq-108">
          <mxGeometry relative="1" as="geometry" />
        </mxCell>
        <mxCell id="NyDk6Hg3P52oke4Y1pbq-214" value="N" style="edgeLabel;html=1;align=center;verticalAlign=middle;resizable=0;points=[];strokeColor=default;fontFamily=Helvetica;fontSize=12;fontColor=default;fontStyle=1;fillColor=default;" vertex="1" connectable="0" parent="NyDk6Hg3P52oke4Y1pbq-213">
          <mxGeometry x="-0.8065" y="-2" relative="1" as="geometry">
            <mxPoint as="offset" />
          </mxGeometry>
        </mxCell>
        <mxCell id="NyDk6Hg3P52oke4Y1pbq-215" value="1" style="edgeLabel;html=1;align=center;verticalAlign=middle;resizable=0;points=[];strokeColor=default;fontFamily=Helvetica;fontSize=12;fontColor=default;fontStyle=1;fillColor=default;" vertex="1" connectable="0" parent="NyDk6Hg3P52oke4Y1pbq-213">
          <mxGeometry x="0.8411" y="2" relative="1" as="geometry">
            <mxPoint as="offset" />
          </mxGeometry>
        </mxCell>
        <mxCell id="NyDk6Hg3P52oke4Y1pbq-216" value="usuario_habilidade → habilidade (N:1)" style="edgeLabel;html=1;align=center;verticalAlign=middle;resizable=0;points=[];strokeColor=default;fontFamily=Helvetica;fontSize=12;fontColor=default;fontStyle=1;fillColor=default;" vertex="1" connectable="0" parent="NyDk6Hg3P52oke4Y1pbq-213">
          <mxGeometry relative="1" as="geometry">
            <mxPoint as="offset" />
          </mxGeometry>
        </mxCell>
        <mxCell id="NyDk6Hg3P52oke4Y1pbq-217" style="edgeStyle=orthogonalEdgeStyle;rounded=0;orthogonalLoop=1;jettySize=auto;html=1;entryX=0;entryY=0.5;entryDx=0;entryDy=0;fontFamily=Helvetica;fontSize=12;fontColor=default;fontStyle=1;startArrow=ERmany;startFill=0;" edge="1" parent="1" source="NyDk6Hg3P52oke4Y1pbq-124" target="NyDk6Hg3P52oke4Y1pbq-156">
          <mxGeometry relative="1" as="geometry">
            <Array as="points">
              <mxPoint x="1760" y="905" />
              <mxPoint x="1760" y="730" />
              <mxPoint x="1410" y="730" />
              <mxPoint x="1410" y="465" />
            </Array>
          </mxGeometry>
        </mxCell>
        <mxCell id="NyDk6Hg3P52oke4Y1pbq-218" value="1" style="edgeLabel;html=1;align=center;verticalAlign=middle;resizable=0;points=[];strokeColor=default;fontFamily=Helvetica;fontSize=12;fontColor=default;fontStyle=1;fillColor=default;" vertex="1" connectable="0" parent="NyDk6Hg3P52oke4Y1pbq-217">
          <mxGeometry x="0.8711" y="-2" relative="1" as="geometry">
            <mxPoint as="offset" />
          </mxGeometry>
        </mxCell>
        <mxCell id="NyDk6Hg3P52oke4Y1pbq-219" value="N" style="edgeLabel;html=1;align=center;verticalAlign=middle;resizable=0;points=[];strokeColor=default;fontFamily=Helvetica;fontSize=12;fontColor=default;fontStyle=1;fillColor=default;" vertex="1" connectable="0" parent="NyDk6Hg3P52oke4Y1pbq-217">
          <mxGeometry x="-0.9073" relative="1" as="geometry">
            <mxPoint as="offset" />
          </mxGeometry>
        </mxCell>
        <mxCell id="NyDk6Hg3P52oke4Y1pbq-220" value="usuario_habilidade → usuario (N:1)" style="edgeLabel;html=1;align=center;verticalAlign=middle;resizable=0;points=[];strokeColor=default;fontFamily=Helvetica;fontSize=12;fontColor=default;fontStyle=1;fillColor=default;" vertex="1" connectable="0" parent="NyDk6Hg3P52oke4Y1pbq-217">
          <mxGeometry relative="1" as="geometry">
            <mxPoint as="offset" />
          </mxGeometry>
        </mxCell>
        <mxCell id="NyDk6Hg3P52oke4Y1pbq-221" style="edgeStyle=orthogonalEdgeStyle;rounded=0;orthogonalLoop=1;jettySize=auto;html=1;entryX=1;entryY=0.5;entryDx=0;entryDy=0;fontFamily=Helvetica;fontSize=12;fontColor=default;fontStyle=1;startArrow=ERmany;startFill=0;" edge="1" parent="1" source="NyDk6Hg3P52oke4Y1pbq-5" target="NyDk6Hg3P52oke4Y1pbq-156">
          <mxGeometry relative="1" as="geometry">
            <Array as="points">
              <mxPoint x="1830" y="825" />
              <mxPoint x="1830" y="700" />
              <mxPoint x="2190" y="700" />
              <mxPoint x="2190" y="465" />
            </Array>
          </mxGeometry>
        </mxCell>
        <mxCell id="NyDk6Hg3P52oke4Y1pbq-222" value="N" style="edgeLabel;html=1;align=center;verticalAlign=middle;resizable=0;points=[];strokeColor=default;fontFamily=Helvetica;fontSize=12;fontColor=default;fontStyle=1;fillColor=default;" vertex="1" connectable="0" parent="NyDk6Hg3P52oke4Y1pbq-221">
          <mxGeometry x="-0.8749" y="-1" relative="1" as="geometry">
            <mxPoint as="offset" />
          </mxGeometry>
        </mxCell>
        <mxCell id="NyDk6Hg3P52oke4Y1pbq-223" value="1" style="edgeLabel;html=1;align=center;verticalAlign=middle;resizable=0;points=[];strokeColor=default;fontFamily=Helvetica;fontSize=12;fontColor=default;fontStyle=1;fillColor=default;" vertex="1" connectable="0" parent="NyDk6Hg3P52oke4Y1pbq-221">
          <mxGeometry x="0.9001" relative="1" as="geometry">
            <mxPoint as="offset" />
          </mxGeometry>
        </mxCell>
        <mxCell id="NyDk6Hg3P52oke4Y1pbq-224" value="tarefa → alerta (N:1)" style="edgeLabel;html=1;align=center;verticalAlign=middle;resizable=0;points=[];strokeColor=default;fontFamily=Helvetica;fontSize=12;fontColor=default;fontStyle=1;fillColor=default;" vertex="1" connectable="0" parent="NyDk6Hg3P52oke4Y1pbq-221">
          <mxGeometry relative="1" as="geometry">
            <mxPoint as="offset" />
          </mxGeometry>
        </mxCell>
        <mxCell id="NyDk6Hg3P52oke4Y1pbq-225" style="edgeStyle=orthogonalEdgeStyle;rounded=0;orthogonalLoop=1;jettySize=auto;html=1;entryX=0;entryY=0.5;entryDx=0;entryDy=0;fontFamily=Helvetica;fontSize=12;fontColor=default;fontStyle=1;startArrow=ERmany;startFill=0;backgroundOutline=0;exitX=1;exitY=0.5;exitDx=0;exitDy=0;" edge="1" parent="1" source="NyDk6Hg3P52oke4Y1pbq-8" target="NyDk6Hg3P52oke4Y1pbq-134">
          <mxGeometry relative="1" as="geometry">
            <Array as="points">
              <mxPoint x="2640" y="855" />
              <mxPoint x="2640" y="650" />
              <mxPoint x="2240" y="650" />
              <mxPoint x="2240" y="340" />
              <mxPoint x="2140" y="340" />
              <mxPoint x="2140" y="85" />
            </Array>
          </mxGeometry>
        </mxCell>
        <mxCell id="NyDk6Hg3P52oke4Y1pbq-226" value="1" style="edgeLabel;html=1;align=center;verticalAlign=middle;resizable=0;points=[];strokeColor=default;fontFamily=Helvetica;fontSize=12;fontColor=default;fontStyle=1;fillColor=default;" vertex="1" connectable="0" parent="NyDk6Hg3P52oke4Y1pbq-225">
          <mxGeometry x="0.9379" relative="1" as="geometry">
            <mxPoint as="offset" />
          </mxGeometry>
        </mxCell>
        <mxCell id="NyDk6Hg3P52oke4Y1pbq-227" value="N" style="edgeLabel;html=1;align=center;verticalAlign=middle;resizable=0;points=[];strokeColor=default;fontFamily=Helvetica;fontSize=12;fontColor=default;fontStyle=1;fillColor=default;" vertex="1" connectable="0" parent="NyDk6Hg3P52oke4Y1pbq-225">
          <mxGeometry x="-0.944" y="-1" relative="1" as="geometry">
            <mxPoint as="offset" />
          </mxGeometry>
        </mxCell>
        <mxCell id="NyDk6Hg3P52oke4Y1pbq-228" value="tarefa_alerta → alerta (N:1)" style="edgeLabel;html=1;align=center;verticalAlign=middle;resizable=0;points=[];strokeColor=default;fontFamily=Helvetica;fontSize=12;fontColor=default;fontStyle=1;fillColor=default;" vertex="1" connectable="0" parent="NyDk6Hg3P52oke4Y1pbq-225">
          <mxGeometry x="-0.15" relative="1" as="geometry">
            <mxPoint as="offset" />
          </mxGeometry>
        </mxCell>
        <mxCell id="NyDk6Hg3P52oke4Y1pbq-229" style="edgeStyle=orthogonalEdgeStyle;rounded=0;orthogonalLoop=1;jettySize=auto;html=1;entryX=1;entryY=0.5;entryDx=0;entryDy=0;fontFamily=Helvetica;fontSize=12;fontColor=default;fontStyle=1;startArrow=ERmany;startFill=0;" edge="1" parent="1" source="NyDk6Hg3P52oke4Y1pbq-146" target="NyDk6Hg3P52oke4Y1pbq-33">
          <mxGeometry relative="1" as="geometry" />
        </mxCell>
        <mxCell id="NyDk6Hg3P52oke4Y1pbq-230" value="N" style="edgeLabel;html=1;align=center;verticalAlign=middle;resizable=0;points=[];strokeColor=default;fontFamily=Helvetica;fontSize=12;fontColor=default;fontStyle=1;fillColor=default;" vertex="1" connectable="0" parent="NyDk6Hg3P52oke4Y1pbq-229">
          <mxGeometry x="-0.8881" relative="1" as="geometry">
            <mxPoint as="offset" />
          </mxGeometry>
        </mxCell>
        <mxCell id="NyDk6Hg3P52oke4Y1pbq-231" value="1" style="edgeLabel;html=1;align=center;verticalAlign=middle;resizable=0;points=[];strokeColor=default;fontFamily=Helvetica;fontSize=12;fontColor=default;fontStyle=1;fillColor=default;" vertex="1" connectable="0" parent="NyDk6Hg3P52oke4Y1pbq-229">
          <mxGeometry x="0.9207" y="-2" relative="1" as="geometry">
            <mxPoint as="offset" />
          </mxGeometry>
        </mxCell>
        <mxCell id="NyDk6Hg3P52oke4Y1pbq-232" value="alerta → localizacao (N:1)" style="edgeLabel;html=1;align=center;verticalAlign=middle;resizable=0;points=[];strokeColor=default;fontFamily=Helvetica;fontSize=12;fontColor=default;fontStyle=1;fillColor=default;" vertex="1" connectable="0" parent="NyDk6Hg3P52oke4Y1pbq-229">
          <mxGeometry relative="1" as="geometry">
            <mxPoint as="offset" />
          </mxGeometry>
        </mxCell>
        <mxCell id="NyDk6Hg3P52oke4Y1pbq-233" style="edgeStyle=orthogonalEdgeStyle;rounded=0;orthogonalLoop=1;jettySize=auto;html=1;entryX=1;entryY=0.5;entryDx=0;entryDy=0;fontFamily=Helvetica;fontSize=12;fontColor=default;fontStyle=1;startArrow=ERmany;startFill=0;" edge="1" parent="1" source="NyDk6Hg3P52oke4Y1pbq-181" target="NyDk6Hg3P52oke4Y1pbq-156">
          <mxGeometry relative="1" as="geometry" />
        </mxCell>
        <mxCell id="NyDk6Hg3P52oke4Y1pbq-234" value="1" style="edgeLabel;html=1;align=center;verticalAlign=middle;resizable=0;points=[];strokeColor=default;fontFamily=Helvetica;fontSize=12;fontColor=default;fontStyle=1;fillColor=default;" vertex="1" connectable="0" parent="NyDk6Hg3P52oke4Y1pbq-233">
          <mxGeometry x="0.8685" relative="1" as="geometry">
            <mxPoint as="offset" />
          </mxGeometry>
        </mxCell>
        <mxCell id="NyDk6Hg3P52oke4Y1pbq-235" value="N" style="edgeLabel;html=1;align=center;verticalAlign=middle;resizable=0;points=[];strokeColor=default;fontFamily=Helvetica;fontSize=12;fontColor=default;fontStyle=1;fillColor=default;" vertex="1" connectable="0" parent="NyDk6Hg3P52oke4Y1pbq-233">
          <mxGeometry x="-0.8469" relative="1" as="geometry">
            <mxPoint as="offset" />
          </mxGeometry>
        </mxCell>
        <mxCell id="NyDk6Hg3P52oke4Y1pbq-236" value="voluntario_alerta → usuario (N:1)" style="edgeLabel;html=1;align=center;verticalAlign=middle;resizable=0;points=[];strokeColor=default;fontFamily=Helvetica;fontSize=12;fontColor=default;fontStyle=1;fillColor=default;" vertex="1" connectable="0" parent="NyDk6Hg3P52oke4Y1pbq-233">
          <mxGeometry relative="1" as="geometry">
            <mxPoint as="offset" />
          </mxGeometry>
        </mxCell>
        <mxCell id="NyDk6Hg3P52oke4Y1pbq-237" value=" " style="edgeStyle=orthogonalEdgeStyle;rounded=0;orthogonalLoop=1;jettySize=auto;html=1;entryX=1;entryY=0.5;entryDx=0;entryDy=0;fontFamily=Helvetica;fontSize=12;fontColor=default;fontStyle=1;startArrow=ERmany;startFill=0;exitX=0;exitY=0.5;exitDx=0;exitDy=0;" edge="1" parent="1" source="NyDk6Hg3P52oke4Y1pbq-178" target="NyDk6Hg3P52oke4Y1pbq-134">
          <mxGeometry relative="1" as="geometry">
            <Array as="points">
              <mxPoint x="2390" y="435" />
              <mxPoint x="2390" y="310" />
              <mxPoint x="2790" y="310" />
              <mxPoint x="2790" y="85" />
            </Array>
          </mxGeometry>
        </mxCell>
        <mxCell id="NyDk6Hg3P52oke4Y1pbq-238" value="1" style="edgeLabel;html=1;align=center;verticalAlign=middle;resizable=0;points=[];strokeColor=default;fontFamily=Helvetica;fontSize=12;fontColor=default;fontStyle=1;fillColor=default;" vertex="1" connectable="0" parent="NyDk6Hg3P52oke4Y1pbq-237">
          <mxGeometry x="0.8812" relative="1" as="geometry">
            <mxPoint as="offset" />
          </mxGeometry>
        </mxCell>
        <mxCell id="NyDk6Hg3P52oke4Y1pbq-239" value="N" style="edgeLabel;html=1;align=center;verticalAlign=middle;resizable=0;points=[];strokeColor=default;fontFamily=Helvetica;fontSize=12;fontColor=default;fontStyle=1;fillColor=default;" vertex="1" connectable="0" parent="NyDk6Hg3P52oke4Y1pbq-237">
          <mxGeometry x="-0.7913" relative="1" as="geometry">
            <mxPoint as="offset" />
          </mxGeometry>
        </mxCell>
        <mxCell id="NyDk6Hg3P52oke4Y1pbq-240" value="voluntario → alerta (N:1)" style="edgeLabel;html=1;align=center;verticalAlign=middle;resizable=0;points=[];strokeColor=default;fontFamily=Helvetica;fontSize=12;fontColor=default;fontStyle=1;fillColor=default;" vertex="1" connectable="0" parent="NyDk6Hg3P52oke4Y1pbq-237">
          <mxGeometry relative="1" as="geometry">
            <mxPoint as="offset" />
          </mxGeometry>
        </mxCell>
      </root>
    </mxGraphModel>
  </diagram>
</mxfile>
